<?xml version="1.0" encoding="utf-8"?><!DOCTYPE svg PUBLIC "-//W3C//DTD SVG 1.1//EN" "http://www.w3.org/Graphics/SVG/1.1/DTD/svg11.dtd"><svg version="1.1" id="Layer_1" xmlns="http://www.w3.org/2000/svg" xmlns:xlink="http://www.w3.org/1999/xlink" x="0px" y="0px"	 width="8px" height="12px" viewBox="0 0 8 12" enable-background="new 0 0 8 12" xml:space="preserve"><g id="Layer_2">	<g>		<g opacity="0.25">			<path fill="#010101" d="M7.723,10.294L3.058,6.118l4.642-4.175C8.103,1.582,8.063,0.963,7.616,0.56				C7.17,0.156,6.479,0.124,6.08,0.484L0.535,5.471C0.261,5.715,0.197,6.082,0.32,6.417C0.331,6.448,0.341,6.48,0.356,6.51				C0.36,6.519,0.366,6.528,0.37,6.537c0.023,0.046,0.05,0.089,0.083,0.131c0.047,0.066,0.1,0.129,0.164,0.187				C0.65,6.884,0.686,6.908,0.721,6.934l5.377,4.816c0.402,0.359,1.091,0.328,1.538-0.075C8.086,11.271,8.123,10.652,7.723,10.294z"				/>		</g>		<g>			<path fill="#FFFFFF" d="M7.46,10.059L2.798,5.884l4.644-4.176c0.402-0.361,0.365-0.98-0.086-1.382				C6.909-0.078,6.221-0.111,5.818,0.25L0.275,5.236C0.001,5.48-0.063,5.848,0.059,6.182c0.009,0.033,0.021,0.063,0.036,0.093				C0.1,6.284,0.104,6.292,0.109,6.301C0.131,6.35,0.16,6.393,0.193,6.434C0.24,6.5,0.293,6.561,0.357,6.621				c0.032,0.027,0.069,0.052,0.104,0.077l5.376,4.817c0.4,0.36,1.092,0.327,1.536-0.075C7.825,11.036,7.862,10.42,7.46,10.059z"/>		</g>	</g></g></svg>