<?xml version="1.0" encoding="utf-8"?>
<!-- Generator: Adobe Illustrator 19.0.0, SVG Export Plug-In . SVG Version: 6.00 Build 0)  -->
<svg version="1.1" id="Layer_1" xmlns="http://www.w3.org/2000/svg" xmlns:xlink="http://www.w3.org/1999/xlink" x="0px" y="0px"
	 viewBox="0 0 31 31" style="enable-background:new 0 0 31 31;" xml:space="preserve">
<style type="text/css">
	.st0{fill:#888888;}
</style>
<path id="XMLID_50_" class="st0" d="M15.5,0C6.9,0,0,6.9,0,15.5S6.9,31,15.5,31S31,24.1,31,15.5S24.1,0,15.5,0z M22.5,17.3
	c-0.5,1-1.5,1.5-2.8,1.5c-0.8,0-1.7-0.3-3-1.2c-1.3-0.8-2.5-1.1-3.1-1.1c-0.6,0-1,0.2-1,0.2s0,6,0,6.4c0,0.2-0.3,0.5-0.6,0.5
	c-0.2,0-0.6,0-0.6,0V8.8c1.2,0,2,0.2,2,0.2c3.2,0.5,4.2,1.9,6.2,1.9c2,0,3-1.2,3-1.2V17.3z"/>
</svg>
