<?xml version="1.0" encoding="utf-8"?>
<!-- Generator: Adobe Illustrator 19.0.0, SVG Export Plug-In . SVG Version: 6.00 Build 0)  -->
<svg version="1.1" id="Layer_1" xmlns="http://www.w3.org/2000/svg" xmlns:xlink="http://www.w3.org/1999/xlink" x="0px" y="0px"
	 viewBox="0 0 15 15" style="enable-background:new 0 0 15 15;" xml:space="preserve">
<style type="text/css">
	.st0{fill:#FFFFFF;}
</style>
<g>
	<path class="st0" d="M6,10.9h1V6.7H6V5.6h2.3v5.3h1V12H6V10.9 M6.6,3.4c0-0.5,0.4-0.9,0.9-0.9c0.5,0,0.9,0.4,0.9,0.9
		c0,0.5-0.4,0.9-0.9,0.9C7,4.3,6.6,3.9,6.6,3.4z"/>
	<path class="st0" d="M7.5,15C3.4,15,0,11.6,0,7.5S3.4,0,7.5,0C11.6,0,15,3.4,15,7.5S11.6,15,7.5,15 M7.5,0.6
		c-3.8,0-6.9,3.1-6.9,6.9s3.1,6.9,6.9,6.9s6.9-3.1,6.9-6.9S11.3,0.6,7.5,0.6z"/>
</g>
</svg>
