<?xml version="1.0" encoding="utf-8"?>
<!-- Generator: Adobe Illustrator 19.0.0, SVG Export Plug-In . SVG Version: 6.00 Build 0)  -->
<svg version="1.1" id="US_UK_Download_on_the" xmlns="http://www.w3.org/2000/svg" xmlns:xlink="http://www.w3.org/1999/xlink"
	 x="0px" y="0px" viewBox="53 -5 135 40" style="enable-background:new 53 -5 135 40;" xml:space="preserve">
<style type="text/css">
	.st0{fill:#A6A6A6;}
	.st1{fill:#FFFFFF;}
</style>
<g>
	<path class="st0" d="M183.2,35H57.7c-2.6,0-4.7-2.1-4.7-4.7V-0.3C53-2.9,55.1-5,57.7-5h125.5c2.6,0,4.8,2.1,4.8,4.7v30.5
		C188,32.9,185.8,35,183.2,35L183.2,35z"/>
	<path d="M187,30.3c0,2.1-1.7,3.8-3.8,3.8H57.7c-2.1,0-3.8-1.7-3.8-3.8V-0.3c0-2.1,1.7-3.8,3.8-3.8h125.5c2.1,0,3.8,1.7,3.8,3.8
		L187,30.3L187,30.3z"/>
	<g>
		<g>
			<path class="st1" d="M83.1,14.8c0-3.2,2.6-4.8,2.8-4.9c-1.5-2.2-3.9-2.5-4.7-2.5c-2-0.2-3.9,1.2-4.9,1.2c-1,0-2.6-1.2-4.2-1.1
				c-2.1,0-4.1,1.3-5.2,3.2c-2.3,3.9-0.6,9.7,1.6,12.9c1.1,1.6,2.4,3.3,4,3.2c1.6-0.1,2.2-1,4.2-1c1.9,0,2.5,1,4.2,1
				c1.7,0,2.8-1.6,3.9-3.1c1.3-1.8,1.8-3.5,1.8-3.6C86.5,19.9,83.2,18.6,83.1,14.8z"/>
			<path class="st1" d="M79.9,5.3c0.9-1.1,1.5-2.6,1.3-4.1c-1.3,0.1-2.8,0.9-3.8,1.9c-0.8,0.9-1.5,2.5-1.3,3.9
				C77.6,7.2,79,6.4,79.9,5.3z"/>
		</g>
	</g>
	<g>
		<path class="st1" d="M106.6,26.5h-2.3l-1.2-3.9h-4.3l-1.2,3.9h-2.2l4.3-13.3h2.6L106.6,26.5z M102.8,21l-1.1-3.5
			c-0.1-0.4-0.3-1.2-0.7-2.5h0c-0.1,0.6-0.3,1.4-0.6,2.5L99.2,21H102.8z"/>
		<path class="st1" d="M117.7,21.6c0,1.6-0.4,2.9-1.3,3.9c-0.8,0.8-1.8,1.3-2.9,1.3c-1.3,0-2.2-0.5-2.7-1.4h0v5.1h-2.1V20.1
			c0-1,0-2.1-0.1-3.2h1.9l0.1,1.5h0c0.7-1.1,1.8-1.7,3.2-1.7c1.1,0,2.1,0.4,2.8,1.3C117.3,18.9,117.7,20.1,117.7,21.6z M115.5,21.7
			c0-0.9-0.2-1.7-0.6-2.3c-0.5-0.6-1.1-0.9-1.9-0.9c-0.5,0-1,0.2-1.4,0.5c-0.4,0.4-0.7,0.8-0.8,1.4c-0.1,0.3-0.1,0.5-0.1,0.6v1.6
			c0,0.7,0.2,1.3,0.6,1.8s1,0.7,1.7,0.7c0.8,0,1.4-0.3,1.9-0.9C115.3,23.5,115.5,22.7,115.5,21.7z"/>
		<path class="st1" d="M128.7,21.6c0,1.6-0.4,2.9-1.3,3.9c-0.8,0.8-1.8,1.3-2.9,1.3c-1.3,0-2.2-0.5-2.7-1.4h0v5.1h-2.1V20.1
			c0-1,0-2.1-0.1-3.2h1.9l0.1,1.5h0c0.7-1.1,1.8-1.7,3.2-1.7c1.1,0,2.1,0.4,2.8,1.3C128.3,18.9,128.7,20.1,128.7,21.6z M126.5,21.7
			c0-0.9-0.2-1.7-0.6-2.3c-0.5-0.6-1.1-0.9-1.9-0.9c-0.5,0-1,0.2-1.4,0.5c-0.4,0.4-0.7,0.8-0.8,1.4c-0.1,0.3-0.1,0.5-0.1,0.6v1.6
			c0,0.7,0.2,1.3,0.6,1.8c0.4,0.5,1,0.7,1.7,0.7c0.8,0,1.4-0.3,1.9-0.9C126.3,23.5,126.5,22.7,126.5,21.7z"/>
		<path class="st1" d="M141,22.8c0,1.1-0.4,2.1-1.2,2.8c-0.9,0.8-2.1,1.2-3.6,1.2c-1.4,0-2.6-0.3-3.4-0.8l0.5-1.8
			c0.9,0.6,2,0.9,3.1,0.9c0.8,0,1.4-0.2,1.9-0.5c0.4-0.4,0.7-0.8,0.7-1.5c0-0.5-0.2-1-0.6-1.4c-0.4-0.4-1-0.7-1.8-1
			c-2.3-0.9-3.5-2.1-3.5-3.8c0-1.1,0.4-2,1.2-2.7c0.8-0.7,1.9-1,3.3-1c1.2,0,2.2,0.2,3,0.6l-0.5,1.7c-0.8-0.4-1.6-0.6-2.5-0.6
			c-0.8,0-1.3,0.2-1.8,0.6c-0.4,0.3-0.5,0.7-0.5,1.2c0,0.5,0.2,1,0.6,1.3c0.4,0.3,1,0.7,1.9,1c1.1,0.5,2,1,2.5,1.6
			C140.8,21.1,141,21.9,141,22.8z"/>
		<path class="st1" d="M148.1,18.5h-2.3v4.7c0,1.2,0.4,1.8,1.2,1.8c0.4,0,0.7,0,0.9-0.1l0.1,1.6c-0.4,0.2-1,0.2-1.7,0.2
			c-0.8,0-1.5-0.3-2-0.8c-0.5-0.5-0.7-1.4-0.7-2.6v-4.8h-1.4v-1.6h1.4v-1.8l2.1-0.6v2.4h2.4C148.1,16.9,148.1,18.5,148.1,18.5z"/>
		<path class="st1" d="M158.7,21.6c0,1.5-0.4,2.7-1.3,3.6c-0.9,1-2.1,1.5-3.5,1.5c-1.4,0-2.5-0.5-3.4-1.4s-1.3-2.1-1.3-3.5
			c0-1.5,0.4-2.7,1.3-3.7c0.9-0.9,2-1.4,3.5-1.4c1.4,0,2.5,0.5,3.4,1.4C158.3,19,158.7,20.2,158.7,21.6z M156.5,21.7
			c0-0.9-0.2-1.6-0.6-2.3c-0.4-0.8-1.1-1.1-1.9-1.1c-0.9,0-1.5,0.4-2,1.1c-0.4,0.6-0.6,1.4-0.6,2.3c0,0.9,0.2,1.6,0.6,2.3
			c0.5,0.8,1.1,1.1,1.9,1.1c0.8,0,1.5-0.4,1.9-1.2C156.3,23.3,156.5,22.6,156.5,21.7z"/>
		<path class="st1" d="M165.6,18.8c-0.2,0-0.4-0.1-0.7-0.1c-0.8,0-1.3,0.3-1.7,0.9c-0.4,0.5-0.5,1.1-0.5,1.9v5h-2.1l0-6.6
			c0-1.1,0-2.1-0.1-3h1.9l0.1,1.8h0.1c0.2-0.6,0.6-1.1,1.1-1.5c0.5-0.3,1-0.5,1.5-0.5c0.2,0,0.4,0,0.5,0
			C165.6,16.8,165.6,18.8,165.6,18.8z"/>
		<path class="st1" d="M175.2,21.3c0,0.4,0,0.7-0.1,1h-6.4c0,0.9,0.3,1.7,0.9,2.2c0.5,0.4,1.2,0.7,2.1,0.7c0.9,0,1.8-0.2,2.6-0.5
			l0.3,1.5c-0.9,0.4-2,0.6-3.2,0.6c-1.5,0-2.7-0.4-3.5-1.3c-0.8-0.9-1.3-2-1.3-3.5c0-1.4,0.4-2.7,1.2-3.6c0.8-1,1.9-1.5,3.4-1.5
			c1.4,0,2.4,0.5,3.1,1.5C174.9,19,175.2,20.1,175.2,21.3z M173.1,20.7c0-0.6-0.1-1.2-0.4-1.6c-0.4-0.6-0.9-0.9-1.7-0.9
			c-0.7,0-1.3,0.3-1.7,0.9c-0.4,0.5-0.6,1-0.6,1.7L173.1,20.7L173.1,20.7z"/>
	</g>
	<g>
		<g>
			<path class="st1" d="M102.1,5c0,1.2-0.4,2.1-1.1,2.7c-0.7,0.5-1.6,0.8-2.8,0.8c-0.6,0-1.1,0-1.5-0.1V2c0.6-0.1,1.2-0.1,1.8-0.1
				c1.1,0,2,0.2,2.6,0.7C101.7,3.2,102.1,4,102.1,5z M100.9,5c0-0.8-0.2-1.3-0.6-1.8c-0.4-0.4-1-0.6-1.8-0.6c-0.3,0-0.6,0-0.8,0.1
				v4.9c0.1,0,0.4,0,0.7,0c0.8,0,1.4-0.2,1.9-0.7C100.7,6.5,100.9,5.9,100.9,5z"/>
			<path class="st1" d="M107.9,6c0,0.7-0.2,1.3-0.6,1.8c-0.4,0.5-1,0.7-1.7,0.7c-0.7,0-1.2-0.2-1.7-0.7c-0.4-0.5-0.6-1-0.6-1.7
				c0-0.7,0.2-1.3,0.6-1.8c0.4-0.5,1-0.7,1.7-0.7c0.7,0,1.2,0.2,1.7,0.7C107.7,4.8,107.9,5.3,107.9,6z M106.8,6.1
				c0-0.4-0.1-0.8-0.3-1.1c-0.2-0.4-0.5-0.6-0.9-0.6c-0.4,0-0.7,0.2-1,0.6c-0.2,0.3-0.3,0.7-0.3,1.1c0,0.4,0.1,0.8,0.3,1.1
				c0.2,0.4,0.5,0.6,1,0.6c0.4,0,0.7-0.2,0.9-0.6C106.7,6.9,106.8,6.5,106.8,6.1z"/>
			<path class="st1" d="M115.8,3.7l-1.5,4.7h-1l-0.6-2c-0.2-0.5-0.3-1-0.4-1.5h0c-0.1,0.5-0.2,1-0.4,1.5l-0.6,2h-1l-1.4-4.7h1.1
				l0.5,2.2c0.1,0.5,0.2,1,0.3,1.5h0c0.1-0.4,0.2-0.9,0.4-1.5l0.7-2.2h0.9l0.6,2.2c0.2,0.5,0.3,1.1,0.4,1.6h0c0.1-0.5,0.2-1,0.3-1.6
				l0.6-2.2L115.8,3.7L115.8,3.7z"/>
			<path class="st1" d="M121.2,8.4h-1V5.7c0-0.8-0.3-1.2-0.9-1.2c-0.3,0-0.6,0.1-0.8,0.3c-0.2,0.2-0.3,0.5-0.3,0.8v2.8h-1V5.1
				c0-0.4,0-0.9,0-1.3h0.9l0,0.7h0c0.1-0.2,0.3-0.4,0.5-0.6c0.3-0.2,0.6-0.3,0.9-0.3c0.4,0,0.8,0.1,1.1,0.4c0.4,0.3,0.5,0.9,0.5,1.6
				V8.4z"/>
			<path class="st1" d="M124.1,8.4h-1V1.6h1V8.4z"/>
			<path class="st1" d="M130.3,6c0,0.7-0.2,1.3-0.6,1.8c-0.4,0.5-1,0.7-1.7,0.7c-0.7,0-1.2-0.2-1.7-0.7c-0.4-0.5-0.6-1-0.6-1.7
				c0-0.7,0.2-1.3,0.6-1.8s1-0.7,1.7-0.7c0.7,0,1.2,0.2,1.7,0.7C130.1,4.8,130.3,5.3,130.3,6z M129.2,6.1c0-0.4-0.1-0.8-0.3-1.1
				c-0.2-0.4-0.5-0.6-0.9-0.6c-0.4,0-0.7,0.2-1,0.6c-0.2,0.3-0.3,0.7-0.3,1.1c0,0.4,0.1,0.8,0.3,1.1c0.2,0.4,0.5,0.6,1,0.6
				c0.4,0,0.7-0.2,0.9-0.6C129.1,6.9,129.2,6.5,129.2,6.1z"/>
			<path class="st1" d="M135.3,8.4h-0.9l-0.1-0.5h0c-0.3,0.4-0.8,0.6-1.4,0.6c-0.4,0-0.8-0.1-1.1-0.4c-0.2-0.3-0.4-0.6-0.4-1
				c0-0.6,0.2-1,0.7-1.3c0.5-0.3,1.2-0.5,2-0.4V5.3c0-0.6-0.3-0.9-1-0.9c-0.5,0-0.9,0.1-1.2,0.3L131.8,4c0.4-0.3,1-0.4,1.6-0.4
				c1.2,0,1.8,0.6,1.8,1.9v1.7C135.3,7.8,135.3,8.2,135.3,8.4z M134.2,6.8V6.1c-1.2,0-1.7,0.3-1.7,0.9c0,0.2,0.1,0.4,0.2,0.6
				c0.1,0.1,0.3,0.2,0.5,0.2c0.2,0,0.4-0.1,0.6-0.2c0.2-0.1,0.3-0.3,0.4-0.6C134.2,6.9,134.2,6.9,134.2,6.8z"/>
			<path class="st1" d="M141.3,8.4h-0.9l0-0.8h0c-0.3,0.6-0.8,0.9-1.5,0.9c-0.6,0-1-0.2-1.4-0.7s-0.6-1-0.6-1.7
				c0-0.8,0.2-1.4,0.6-1.9c0.4-0.4,0.9-0.7,1.5-0.7c0.6,0,1.1,0.2,1.3,0.6h0V1.6h1v5.6C141.2,7.6,141.3,8,141.3,8.4z M140.2,6.4V5.7
				c0-0.1,0-0.2,0-0.3c-0.1-0.3-0.2-0.5-0.4-0.6c-0.2-0.2-0.4-0.3-0.7-0.3c-0.4,0-0.7,0.2-0.9,0.5c-0.2,0.3-0.3,0.7-0.3,1.2
				c0,0.5,0.1,0.8,0.3,1.1c0.2,0.3,0.5,0.5,0.9,0.5c0.3,0,0.6-0.1,0.8-0.4C140.1,7.1,140.2,6.8,140.2,6.4z"/>
			<path class="st1" d="M150.2,6c0,0.7-0.2,1.3-0.6,1.8c-0.4,0.5-1,0.7-1.7,0.7c-0.7,0-1.2-0.2-1.7-0.7c-0.4-0.5-0.6-1-0.6-1.7
				c0-0.7,0.2-1.3,0.6-1.8s1-0.7,1.7-0.7c0.7,0,1.2,0.2,1.7,0.7C150,4.8,150.2,5.3,150.2,6z M149.2,6.1c0-0.4-0.1-0.8-0.3-1.1
				c-0.2-0.4-0.5-0.6-0.9-0.6c-0.4,0-0.7,0.2-1,0.6c-0.2,0.3-0.3,0.7-0.3,1.1c0,0.4,0.1,0.8,0.3,1.1c0.2,0.4,0.5,0.6,1,0.6
				c0.4,0,0.7-0.2,0.9-0.6C149.1,6.9,149.2,6.5,149.2,6.1z"/>
			<path class="st1" d="M155.9,8.4h-1V5.7c0-0.8-0.3-1.2-1-1.2c-0.3,0-0.6,0.1-0.8,0.3s-0.3,0.5-0.3,0.8v2.8h-1V5.1
				c0-0.4,0-0.9,0-1.3h0.9l0,0.7h0c0.1-0.2,0.3-0.4,0.5-0.6c0.3-0.2,0.6-0.3,1-0.3c0.4,0,0.8,0.1,1.1,0.4c0.4,0.3,0.5,0.9,0.5,1.6
				V8.4z"/>
			<path class="st1" d="M162.9,4.5h-1.2v2.3c0,0.6,0.2,0.9,0.6,0.9c0.2,0,0.3,0,0.5,0l0,0.8c-0.2,0.1-0.5,0.1-0.8,0.1
				c-0.4,0-0.7-0.1-1-0.4c-0.2-0.3-0.4-0.7-0.4-1.3V4.5h-0.7V3.7h0.7V2.9l1-0.3v1.2h1.2L162.9,4.5L162.9,4.5z"/>
			<path class="st1" d="M168.5,8.4h-1V5.8c0-0.8-0.3-1.3-0.9-1.3c-0.5,0-0.8,0.2-1,0.7c0,0.1,0,0.2,0,0.4v2.8h-1V1.6h1v2.8h0
				c0.3-0.5,0.8-0.8,1.4-0.8c0.4,0,0.8,0.1,1.1,0.4c0.4,0.4,0.5,0.9,0.5,1.6C168.5,5.6,168.5,8.4,168.5,8.4z"/>
			<path class="st1" d="M174.2,5.9c0,0.2,0,0.3,0,0.5H171c0,0.5,0.2,0.8,0.5,1.1c0.3,0.2,0.6,0.3,1,0.3c0.5,0,0.9-0.1,1.3-0.2
				l0.2,0.7c-0.4,0.2-1,0.3-1.6,0.3c-0.7,0-1.3-0.2-1.7-0.6c-0.4-0.4-0.6-1-0.6-1.7c0-0.7,0.2-1.3,0.6-1.8c0.4-0.5,1-0.8,1.6-0.8
				c0.7,0,1.2,0.3,1.5,0.8C174.1,4.8,174.2,5.3,174.2,5.9z M173.2,5.6c0-0.3-0.1-0.6-0.2-0.8c-0.2-0.3-0.5-0.4-0.8-0.4
				c-0.3,0-0.6,0.1-0.8,0.4c-0.2,0.2-0.3,0.5-0.3,0.8C171,5.6,173.2,5.6,173.2,5.6z"/>
		</g>
	</g>
</g>
</svg>
