<?xml version="1.0" encoding="iso-8859-1"?>
<!-- Generator: Adobe Illustrator 16.0.4, SVG Export Plug-In . SVG Version: 6.00 Build 0)  -->
<!DOCTYPE svg PUBLIC "-//W3C//DTD SVG 1.1 Tiny//EN" "http://www.w3.org/Graphics/SVG/1.1/DTD/svg11-tiny.dtd">
<svg version="1.1" baseProfile="tiny" id="Layer_1" xmlns="http://www.w3.org/2000/svg" xmlns:xlink="http://www.w3.org/1999/xlink"
	 x="0px" y="0px" width="8px" height="7px" viewBox="0 0 8 7" xml:space="preserve">
<image width="17" height="30" xlink:href="EFD0F21008897943.png"  transform="matrix(0.24 0 0 0.24 4 0)">
</image>
<g>
	<path fill-rule="evenodd" fill="#45464A" d="M4,3H0v0.99h4V3z M3,0v1h1V0H3z M4,1v1h1V1H4z M5,2v1h1V2H5z M6,3v1h1V3H6z M5,5h1V4H5
		V5z M4,6h1V5H4V6z M3,7h1V6H3V7z"/>
</g>
</svg>
