<?xml version="1.0" encoding="UTF-8"?><!DOCTYPE svg PUBLIC "-//W3C//DTD SVG 1.1//EN" "http://www.w3.org/Graphics/SVG/1.1/DTD/svg11.dtd"><svg version="1.1" id="Layer_1" xmlns="http://www.w3.org/2000/svg" xmlns:xlink="http://www.w3.org/1999/xlink" x="0px" y="0px" width="13.268px" height="16.705px" viewBox="0 0 13.268 16.705" enable-background="new 0 0 13.268 16.705" xml:space="preserve"><path fill="#8A8A8A" d="M10.384,5.193H9.858V3.589c-0.165-2.042-1.421-3.232-3.33-3.232c-1.91,0-3.26,1.323-3.26,3.232v1.604H2.75  c-0.697,0-1.263,0.106-1.263,0.804v8.154c0,0.698,0.566,1.266,1.263,1.266h7.634c0.698,0,1.267-0.567,1.267-1.266V5.997  C11.651,5.299,11.083,5.193,10.384,5.193z M7.969,11.454c0,0.632-0.743,1.145-1.375,1.145c-0.632,0-1.375-0.513-1.375-1.145v-2.95  c0-0.632,0.743-1.343,1.375-1.343c0.632,0,1.375,0.71,1.375,1.343V11.454z M8.92,5.192H4.338V3.413c0-1.337,0.853-1.931,2.19-1.931  S8.92,2.076,8.92,3.413V5.192z"/></svg>