<?xml version="1.0" encoding="UTF-8"?><!DOCTYPE svg PUBLIC "-//W3C//DTD SVG 1.1//EN" "http://www.w3.org/Graphics/SVG/1.1/DTD/svg11.dtd"><svg version="1.1" id="Layer_1" xmlns="http://www.w3.org/2000/svg" xmlns:xlink="http://www.w3.org/1999/xlink" x="0px" y="0px" width="30px" height="30px" viewBox="0 0 30 30" enable-background="new 0 0 30 30" xml:space="preserve"><g id="Layer_2">	<g id="Layer_3">	</g>	<g>		<g>			<path id="SVGID_1_" fill="#44464A" d="M29.75,29.405h-8.682l-6.257-9.546l-6.384,9.546H0.141l10.312-14.65L0.355,0.323h8.657     l6.05,9.055l6.221-9.055h8.311L19.445,14.448L29.75,29.405z"/>		</g>		<g>			<g>				<defs>					<polygon id="SVGID_2_" points="29.75,29.405 21.068,29.405 14.812,19.859 8.428,29.405 0.141,29.405 10.453,14.755        0.355,0.323 9.013,0.323 15.062,9.378 21.283,0.323 29.594,0.323 19.445,14.448      "/>				</defs>				<clipPath id="SVGID_3_">					<use xlink:href="#SVGID_2_" overflow="visible"/>				</clipPath>				<g clip-path="url(#SVGID_3_)">					<g>						<path fill="#FFFFFF" d="M-0.211,0.149v30H30.33v-30H-0.211z M21.068,29.405l-6.257-9.546l-6.384,9.546H0.141l10.312-14.65        L0.355,0.323h8.657l6.05,9.055l6.221-9.055h8.311L19.445,14.448L29.75,29.405H21.068z"/>					</g>				</g>			</g>		</g>	</g></g></svg>