<?xml version="1.0" encoding="windows-1252"?><!DOCTYPE svg PUBLIC "-//W3C//DTD SVG 1.1 Tiny//EN" "http://www.w3.org/Graphics/SVG/1.1/DTD/svg11-tiny.dtd"><svg version="1.1" baseProfile="tiny" id="Layer_1" xmlns="http://www.w3.org/2000/svg" xmlns:xlink="http://www.w3.org/1999/xlink" x="0px" y="0px" width="14.555px" height="12.71px" viewBox="0 0 14.555 12.71" xml:space="preserve"><path fill="#FFFFFF" stroke="#5174B9" stroke-width="1.75" stroke-linejoin="round" d="M12.593,0.875H1.958  c-0.598,0-1.083,0.532-1.083,1.187v5.445c0,0.656,0.485,1.188,1.083,1.188h1.326l-1.028,3.141l3.871-3.141h6.466  c0.601,0,1.087-0.531,1.087-1.188V2.062C13.68,1.407,13.192,0.875,12.593,0.875z"/><g>	<g>		<path fill="#5174B9" d="M2.854,4.863c-0.009-0.528,0.421-0.94,0.94-0.94c0.52,0,0.941,0.412,0.941,0.932    c0,0.528-0.412,0.94-0.941,0.94C3.276,5.795,2.854,5.392,2.854,4.863z"/>	</g>	<g>		<path fill="#5174B9" d="M6.335,4.863c-0.009-0.528,0.421-0.94,0.94-0.94c0.52,0,0.94,0.412,0.94,0.932    c0,0.528-0.412,0.94-0.94,0.94C6.756,5.795,6.335,5.392,6.335,4.863z"/>	</g>	<g>		<path fill="#5174B9" d="M9.819,4.863c-0.009-0.528,0.422-0.94,0.94-0.94c0.52,0,0.94,0.412,0.94,0.932    c0,0.528-0.412,0.94-0.94,0.94C10.241,5.795,9.819,5.392,9.819,4.863z"/>	</g></g></svg>