<?xml version="1.0" encoding="windows-1252"?><!DOCTYPE svg PUBLIC "-//W3C//DTD SVG 1.1 Tiny//EN" "http://www.w3.org/Graphics/SVG/1.1/DTD/svg11-tiny.dtd"><svg version="1.1" baseProfile="tiny" id="Layer_1" xmlns="http://www.w3.org/2000/svg" xmlns:xlink="http://www.w3.org/1999/xlink" x="0px" y="0px" width="8.015px" height="15.973px" viewBox="0 0 8.015 15.973" overflow="visible" xml:space="preserve"><path fill="#5174B9" stroke="#5174B9" stroke-width="1.5" stroke-linejoin="round" d="M1.75,15.223c-0.551,0-1-0.45-1-1.001V1.751  c0-0.551,0.449-1.001,1-1.001h4.515c0.551,0,1,0.45,1,1.001v12.471c0,0.551-0.449,1.001-1,1.001H1.75z"/><path fill="#FFFFFF" stroke="#5174B9" stroke-width="1.5" stroke-linejoin="round" d="M1.75,13.5c-0.551,0-1-0.449-1-1V2.393  c0-0.55,0.449-1.001,1-1.001h4.515c0.551,0,1,0.451,1,1.001V12.5c0,0.551-0.449,1-1,1H1.75z"/><circle fill="none" cx="4.024" cy="12.307" r="0.367"/><line fill="#6B6B6B" stroke="#FFFFFF" stroke-linecap="round" stroke-linejoin="round" x1="3.657" y1="14.188" x2="4.391" y2="14.188"/></svg>