<?xml version="1.0" encoding="UTF-8"?>
<svg width="10px" height="14px" viewBox="0 0 10 14" version="1.1" xmlns="http://www.w3.org/2000/svg" xmlns:xlink="http://www.w3.org/1999/xlink">
    <!-- Generator: Sketch 52.2 (67145) - http://www.bohemiancoding.com/sketch -->
    <title>frontporch-lock-signon</title>
    <desc>Created with Sketch.</desc>
    <defs>
        <path d="M5.75154004,8.399 C5.87371663,8.518 6.07186858,8.517 6.19404517,8.398 L7.29671458,7.324 C7.41991786,7.204 7.41991786,7.011 7.29774127,6.892 C7.17556468,6.774 6.97741273,6.774 6.85523614,6.893 L5.75154004,7.967 C5.62936345,8.087 5.62936345,8.28 5.75154004,8.399 L5.75154004,8.399 Z M5.75154004,9.862 C5.62936345,9.981 5.62936345,10.174 5.75154004,10.294 L6.85523614,11.368 C6.97741273,11.487 7.17556468,11.487 7.29774127,11.369 C7.41991786,11.25 7.41991786,11.057 7.29671458,10.937 L6.19404517,9.863 C6.07186858,9.744 5.87371663,9.743 5.75154004,9.862 L5.75154004,9.862 Z M4.24845996,9.862 C4.12628337,9.743 3.92915811,9.744 3.80595483,9.863 L2.70328542,10.937 C2.58110883,11.057 2.58008214,11.25 2.70225873,11.369 C2.82443532,11.487 3.02258727,11.487 3.14476386,11.368 L4.24845996,10.294 C4.37063655,10.174 4.37063655,9.981 4.24845996,9.862 L4.24845996,9.862 Z M4.24948665,8.399 C4.37063655,8.28 4.37063655,8.087 4.24845996,7.967 L3.14476386,6.893 C3.02258727,6.774 2.82443532,6.774 2.70225873,6.892 C2.58008214,7.011 2.58110883,7.204 2.70328542,7.324 L3.80595483,8.398 C3.92915811,8.517 4.12628337,8.518 4.24948665,8.399 L4.24948665,8.399 Z M6.06262834,9.13 C6.06262834,9.298 6.20225873,9.435 6.37577002,9.435 L7.93531828,9.435 C8.10882957,9.435 8.24948665,9.298 8.24948665,9.13 C8.24948665,8.962 8.10882957,8.826 7.93531828,8.826 L6.37577002,8.826 C6.20225873,8.826 6.06262834,8.962 6.06262834,9.13 L6.06262834,9.13 Z M5,10.165 C4.8275154,10.165 4.68788501,10.302 4.68788501,10.471 L4.68788501,11.99 C4.68788501,12.159 4.8275154,12.295 5,12.295 C5.1724846,12.295 5.31211499,12.159 5.31211499,11.99 L5.31211499,10.471 C5.31211499,10.302 5.1724846,10.165 5,10.165 L5,10.165 Z M3.93737166,9.13 C3.93737166,8.962 3.79774127,8.826 3.62422998,8.826 L2.06468172,8.826 C1.89117043,8.826 1.75051335,8.962 1.75051335,9.13 C1.75051335,9.298 1.89117043,9.435 2.06468172,9.435 L3.62422998,9.435 C3.79774127,9.435 3.93737166,9.298 3.93737166,9.13 L3.93737166,9.13 Z M5,8.096 C5.1724846,8.096 5.31211499,7.959 5.31211499,7.79 L5.31211499,6.271 C5.31211499,6.102 5.1724846,5.965 5,5.965 C4.8275154,5.965 4.68788501,6.102 4.68788501,6.271 L4.68788501,7.79 C4.68788501,7.959 4.8275154,8.096 5,8.096 L5,8.096 Z M8.48049281,5.641 L8.48049281,3.39 C8.48049281,1.521 6.91889117,0 5,0 C3.08110883,0 1.51950719,1.521 1.51950719,3.39 L1.51950719,5.641 C0.584188912,6.527 0,7.763 0,9.13 C0,11.816 2.24332649,14 5,14 C7.75667351,14 10,11.816 10,9.13 C10,7.763 9.41581109,6.526 8.48049281,5.641 L8.48049281,5.641 Z M2.81314168,3.348 C2.81314168,2.173 3.7936345,1.217 5,1.217 C6.2063655,1.217 7.18685832,2.173 7.18685832,3.348 L7.18685832,4.748 C6.52669405,4.428 5.78644764,4.249 5,4.249 C4.21355236,4.249 3.47330595,4.428 2.81314168,4.748 L2.81314168,3.348 Z M5,12.783 C2.93223819,12.783 1.25051335,11.145 1.25051335,9.131 C1.25051335,7.117 2.93223819,5.478 5,5.478 C7.06776181,5.478 8.74948665,7.117 8.74948665,9.131 C8.74948665,11.145 7.06776181,12.783 5,12.783 L5,12.783 Z" id="path-1"></path>
    </defs>
    <g id="frontporch-lock-signon" stroke="none" stroke-width="1" fill="none" fill-rule="evenodd">
        <mask id="mask-2" fill="white">
            <use xlink:href="#path-1"></use>
        </mask>
        <use id="Fill-1-Copy" fill="#3B3331" xlink:href="#path-1"></use>
    </g>
</svg>