<?xml version="1.0" encoding="UTF-8"?>
<svg width="16px" height="16px" viewBox="0 0 16 16" version="1.1" xmlns="http://www.w3.org/2000/svg" xmlns:xlink="http://www.w3.org/1999/xlink">
    <!-- Generator: Sketch 51.1 (57501) - http://www.bohemiancoding.com/sketch -->
    <title>BIM/icons/search</title>
    <desc>Created with Sketch.</desc>
    <defs></defs>
    <g id="Masthead-and-Navigation" stroke="none" stroke-width="1" fill="none" fill-rule="evenodd">
        <g id="Masthead-specs" transform="translate(-2372.000000, -397.000000)" fill="#3B3331">
            <g id="masthead" transform="translate(200.000000, 100.000000)">
                <g id="masthead-medium" transform="translate(0.000000, 244.000000)">
                    <g id="Group" transform="translate(888.000000, 31.000000)">
                        <g id="SearchBar-small" transform="translate(1188.000000, 16.000000)">
                            <g id="BIM/icon/search" transform="translate(96.000000, 6.000000)">
                                <path d="M15.70654,14.3710489 L11.3259278,9.98854985 C12.1111588,8.91753045 12.531804,7.62269357 12.525939,6.29465577 C12.5109564,2.82803647 9.70719506,0.0200860516 6.24073767,6.36806152e-05 C4.58184241,-0.0074421599 2.98884613,0.648845624 1.81662335,1.82272468 C0.644400556,2.99660373 -0.00967429413,4.59056202 0.000108172686,6.24951072 C0.0150908386,9.71644562 2.81910797,12.5246519 6.28588095,12.5446743 C7.61927643,12.5504536 8.91879287,12.1248818 9.99048685,11.3314724 L9.99505832,11.3280436 L14.3716705,15.7071139 C14.6083,15.95537 14.960894,16.0558582 15.2928389,15.9696441 C15.6247839,15.88343 15.8839215,15.6240603 15.9698481,15.2920286 C16.0557747,14.9599969 15.9549887,14.6074751 15.70654,14.3710489 L15.70654,14.3710489 Z M6.28130948,11.289756 C3.5080426,11.2738021 1.26486537,9.0274776 1.25269126,6.25408237 C1.24520615,4.92709529 1.76850908,3.65218475 2.70611075,2.71315088 C3.64371242,1.774117 4.91779321,1.24889827 6.24473771,1.25441045 C9.01800458,1.27036435 11.2611818,3.5166889 11.2733559,6.29008412 C11.280841,7.6170712 10.7575381,8.89198174 9.81993644,9.83101562 C8.88233477,10.7700495 7.60825398,11.2952682 6.28130948,11.289756 Z" id="Search"></path>
                            </g>
                        </g>
                    </g>
                </g>
            </g>
        </g>
    </g>
</svg>