<?xml version="1.0" encoding="UTF-8"?>
<svg width="12px" height="18px" viewBox="0 0 12 18" version="1.1" xmlns="http://www.w3.org/2000/svg" xmlns:xlink="http://www.w3.org/1999/xlink">
    <!-- Generator: Sketch 52.2 (67145) - http://www.bohemiancoding.com/sketch -->
    <title>search_box_icon-e-12x18</title>
    <desc>Created with Sketch.</desc>
    <g id="search_box_icon-e-12x18" stroke="none" stroke-width="1" fill="none" fill-rule="evenodd">
        <path d="M5.8439,15.8204 C3.4269,15.8204 1.4619,13.7934 1.4619,11.2994 C1.4619,8.8074 3.4269,6.7794 5.8439,6.7794 C8.2609,6.7794 10.2259,8.8074 10.2259,11.2994 C10.2259,13.7934 8.2609,15.8204 5.8439,15.8204 Z M3.2879,4.1434 C3.2879,2.6894 4.4339,1.5064 5.8439,1.5064 C7.2539,1.5064 8.3999,2.6894 8.3999,4.1434 L8.3999,5.8764 C7.6289,5.4804 6.7629,5.2584 5.8439,5.2584 C4.9249,5.2584 4.0599,5.4804 3.2879,5.8764 L3.2879,4.1434 Z M9.9119,6.9814 L9.9119,4.1954 C9.9119,1.8824 8.0869,0.0004 5.8439,0.0004 C3.6009,0.0004 1.7759,1.8824 1.7759,4.1954 L1.7759,6.9814 C0.6829,8.0774 -0.0001,9.6074 -0.0001,11.2994 C-0.0001,14.6234 2.6219,17.3264 5.8439,17.3264 C9.0659,17.3264 11.6879,14.6234 11.6879,11.2994 C11.6879,9.6074 11.0059,8.0764 9.9119,6.9814 Z M5.8439,10.0194 C6.0459,10.0194 6.2089,9.8494 6.2089,9.6404 L6.2089,7.7604 C6.2089,7.5514 6.0459,7.3824 5.8439,7.3824 C5.6419,7.3824 5.4789,7.5514 5.4789,7.7604 L5.4789,9.6404 C5.4789,9.8494 5.6419,10.0194 5.8439,10.0194 Z M4.6019,11.2994 C4.6019,11.0914 4.4389,10.9234 4.2359,10.9234 L2.4129,10.9234 C2.2109,10.9234 2.0459,11.0914 2.0459,11.2994 C2.0459,11.5074 2.2109,11.6764 2.4129,11.6764 L4.2359,11.6764 C4.4389,11.6764 4.6019,11.5074 4.6019,11.2994 Z M5.8439,12.5804 C5.6419,12.5804 5.4789,12.7494 5.4789,12.9594 L5.4789,14.8394 C5.4789,15.0484 5.6419,15.2164 5.8439,15.2164 C6.0459,15.2164 6.2089,15.0484 6.2089,14.8394 L6.2089,12.9594 C6.2089,12.7494 6.0459,12.5804 5.8439,12.5804 Z M7.0859,11.2994 C7.0859,11.5074 7.2499,11.6764 7.4519,11.6764 L9.2749,11.6764 C9.4769,11.6764 9.6419,11.5074 9.6419,11.2994 C9.6419,11.0914 9.4769,10.9234 9.2749,10.9234 L7.4519,10.9234 C7.2499,10.9234 7.0859,11.0914 7.0859,11.2994 Z M4.9669,10.3944 C5.1089,10.2474 5.1089,10.0084 4.9659,9.8604 L3.6759,8.5304 C3.5329,8.3834 3.3019,8.3834 3.1579,8.5294 C3.0159,8.6764 3.0169,8.9154 3.1599,9.0644 L4.4479,10.3934 C4.5929,10.5404 4.8229,10.5424 4.9669,10.3944 Z M4.9659,12.2054 C4.8229,12.0574 4.5929,12.0584 4.4479,12.2064 L3.1599,13.5354 C3.0169,13.6834 3.0159,13.9234 3.1579,14.0704 C3.3019,14.2164 3.5329,14.2164 3.6759,14.0684 L4.9659,12.7394 C5.1089,12.5914 5.1089,12.3524 4.9659,12.2054 Z M6.7219,12.2054 C6.5799,12.3524 6.5799,12.5914 6.7219,12.7394 L8.0119,14.0684 C8.1549,14.2164 8.3859,14.2164 8.5299,14.0704 C8.6729,13.9234 8.6729,13.6834 8.5279,13.5354 L7.2399,12.2064 C7.0969,12.0584 6.8649,12.0574 6.7219,12.2054 Z M6.7219,10.3944 C6.8649,10.5424 7.0969,10.5404 7.2399,10.3934 L8.5279,9.0644 C8.6729,8.9154 8.6729,8.6764 8.5299,8.5294 C8.3859,8.3834 8.1549,8.3834 8.0119,8.5304 L6.7219,9.8604 C6.5799,10.0084 6.5799,10.2474 6.7219,10.3944 Z" id="Fill-1" fill="#3B3331"></path>
    </g>
</svg>