<?xml version="1.0" encoding="utf-8"?>
<!-- Generator: Adobe Illustrator 19.0.0, SVG Export Plug-In . SVG Version: 6.00 Build 0)  -->
<svg version="1.1" id="Layer_1" xmlns="http://www.w3.org/2000/svg" xmlns:xlink="http://www.w3.org/1999/xlink" x="0px" y="0px"
	 viewBox="0.3 -7.7 16 16" style="enable-background:new 0.3 -7.7 16 16;" xml:space="preserve">
<style type="text/css">
	.st0{fill:#696B6E;}
</style>
<path class="st0" d="M11.9-2.6L9,0.3l2.8,2.8l-0.7,0.7L8.3,1.1L5.4,4L4.7,3.2l2.9-2.9L4.8-2.4l0.7-0.7l2.8,2.8l2.9-2.9L11.9-2.6z
	 M16.3,0.3c0,2.1-0.8,4.1-2.3,5.7c-1.5,1.5-3.5,2.3-5.7,2.3C6.2,8.3,4.2,7.5,2.7,6C1.1,4.5,0.3,2.5,0.3,0.3c0-2.1,0.8-4.1,2.3-5.7
	c1.5-1.5,3.5-2.3,5.7-2.3c2.1,0,4.1,0.8,5.7,2.3C15.5-3.8,16.3-1.8,16.3,0.3z M15.3,0.3c0-1.9-0.7-3.6-2-4.9c-1.3-1.3-3.1-2-4.9-2
	c-1.9,0-3.6,0.7-4.9,2c-1.3,1.3-2,3.1-2,4.9c0,1.9,0.7,3.6,2,4.9c1.3,1.3,3.1,2,4.9,2c1.9,0,3.6-0.7,4.9-2C14.6,4,15.3,2.2,15.3,0.3
	z"/>
</svg>
