<?xml version="1.0" encoding="UTF-8"?>
<svg width="24px" height="24px" viewBox="0 0 24 24" version="1.1" xmlns="http://www.w3.org/2000/svg" xmlns:xlink="http://www.w3.org/1999/xlink">
    <!-- Generator: Sketch 52.2 (67145) - http://www.bohemiancoding.com/sketch -->
    <title>icon-contact-24x24</title>
    <desc>Created with Sketch.</desc>
    <g id="icon-contact-24x24" stroke="none" stroke-width="1" fill="none" fill-rule="evenodd">
        <g id="icon-contact" transform="translate(2.106383, 0.000000)" fill="#3B3331">
            <path d="M18.1546213,3.37874043 C17.6107915,2.78257021 15.1612596,0.453548936 13.8854298,0.126229787 C13.5542809,0.0412085106 13.2642383,0.00010212766 12.9984511,0.00010212766 C12.1704511,0.00010212766 11.5581957,0.399421277 11.1795574,1.18708085 C10.7044085,2.1744 10.1797277,4.3890383 10.5001532,6.22222979 C10.7878979,7.86061277 11.8671319,7.99822979 12.4469617,8.07227234 C12.5480681,8.0850383 12.6864511,8.10265532 12.7165787,8.11414468 L12.7747915,8.15065532 C12.9318128,8.24869787 12.9701106,8.28137872 12.9800681,8.32605957 C13.0004936,8.41593191 13.0130043,8.79431489 12.3185362,9.88554894 L8.56994043,15.7739745 C7.7748766,17.0224851 7.42840851,17.036783 7.41411064,17.036783 C7.36713191,17.036783 7.27291915,16.9757617 7.18994043,16.9218894 L7.14474894,16.8935489 C7.11002553,16.8629106 7.03547234,16.7446979 6.98083404,16.6586553 C6.72245106,16.249634 6.29019574,15.565634 5.25130213,15.565634 C5.01513191,15.565634 4.75572766,15.6034213 4.48074894,15.6774638 C2.73181277,16.1490383 0.9456,17.5382298 0.293770213,18.5549106 C-0.349889362,19.5585702 0.173259574,20.6661447 0.816919149,21.3098043 C0.95147234,21.4443574 1.12253617,21.5901447 1.31836596,21.740783 C1.90457872,22.1789106 3.05351489,22.8810383 4.36942979,23.4246128 C5.03811064,23.7008681 5.5428766,23.7557617 6.11325957,23.7557617 C6.41249362,23.7557617 6.72168511,23.7233362 7.08679149,23.6531234 C8.15785532,23.4478468 9.17402553,22.8011234 10.4850894,21.4905702 C12.0969191,19.8787404 13.5793021,17.8492085 14.3858553,16.6788255 L14.4029617,16.6933787 L14.7547915,16.1441872 C14.7547915,16.1441872 14.7969191,16.0783149 14.8645787,15.968783 C14.9419404,15.8503149 14.9838128,15.7844426 14.9838128,15.7844426 L15.2993872,15.2768681 L15.2914723,15.2722723 C16.0086638,14.1013787 17.2786213,11.9597617 18.0282383,9.63278298 C19.0947064,6.3210383 19.1324936,4.45082553 18.1546213,3.37874043" id="Fill-1"></path>
        </g>
    </g>
</svg>