<?xml version="1.0" encoding="UTF-8"?>
<svg width="24px" height="24px" viewBox="0 0 24 24" version="1.1" xmlns="http://www.w3.org/2000/svg" xmlns:xlink="http://www.w3.org/1999/xlink">
    <!-- Generator: Sketch 52.2 (67145) - http://www.bohemiancoding.com/sketch -->
    <title>icon-rates-24x24</title>
    <desc>Created with Sketch.</desc>
    <g id="icon-rates-24x24" stroke="none" stroke-width="1" fill="none" fill-rule="evenodd">
        <g id="icon-rates" fill="#3B3331">
            <path d="M5,19 L8.98840332,19.019043 L9,13 L5,13 L5,19 Z M10,9 L14,9 L14,19 L10,19 L10,12.5757765 L10,9 Z M15.0043636,3.01345455 L19,3 L18.9927368,19.0322266 L15.0043636,19 L15.0043636,8.50356364 L15.0043636,3.01345455 Z M4.42663386,19.9898877 L9.25723636,19.9898877 L14.5241455,19.9898877 L19.521709,19.9898877 C19.7867999,19.9898877 20.001709,19.7747604 20.001709,19.5098877 L20.001709,2.5 C20.001709,2.23512727 19.7650909,2 19.5,2 L14.5,2 C14.2351273,2 14,2.23343782 14,2.49831055 L14,8 L9.48183105,8.02334545 C9.21674015,8.02334545 9.00183105,8.23847273 9.00183105,8.50356364 L9.00183105,12.0025455 L4.55249023,12.0025455 C4.28739933,12.0025455 4.01861572,12.2174545 4.01861572,12.4825455 L4.01861572,19.5098877 C4.01861572,19.7747604 4.28739933,19.9898877 4.55249023,19.9898877 L4.42663386,19.9898877 Z" id="Fill-1"></path>
            <polygon id="Fill-3" points="0.999237061 23 0.999237061 0.0002 8.72727273e-05 0.0002 -1.0658141e-14 24 24 24 24 23"></polygon>
        </g>
    </g>
</svg>