<?xml version="1.0" encoding="UTF-8"?>
<svg width="24px" height="24px" viewBox="0 0 24 24" version="1.1" xmlns="http://www.w3.org/2000/svg" xmlns:xlink="http://www.w3.org/1999/xlink">
    <!-- Generator: Sketch 52.2 (67145) - http://www.bohemiancoding.com/sketch -->
    <title>icon-appointments-24x24</title>
    <desc>Created with Sketch.</desc>
    <g id="icon-appointments-24x24" stroke="none" stroke-width="1" fill="none" fill-rule="evenodd">
        <g id="icon-appointments" transform="translate(-0.000000, 0.000000)" fill="#3B3331">
            <path d="M21.5110006,23 L2.48922056,23 C1.66799337,23 1,22.3376282 1,21.5230928 L1,6 L23,6 L23,21.5230928 C23,22.3376282 22.3322278,23 21.5110006,23 M21.5630489,0 L2.43695112,0 C1.09319302,0 0,1.08455261 0,2.41768988 L0,21.581869 C0,22.9152268 1.09319302,24 2.43695112,24 L21.5630489,24 C22.906807,24 24,22.9152268 24,21.581869 L24,2.41768988 C24,1.08455261 22.906807,0 21.5630489,0" id="Fill-1"></path>
            <path d="M14.41248,10.1015345 C14.1578618,10.1015345 13.9514618,10.3079345 13.9514618,10.5625527 L13.9514618,13.7213891 L11.8019345,12.4585527 C11.5824436,12.3298255 11.2998982,12.4026982 11.1709527,12.6224073 C11.0420073,12.8418982 11.1155345,13.1244436 11.3350255,13.2533891 L14.1790255,14.9242255 C14.2510255,14.9665527 14.3317527,14.9879345 14.41248,14.9879345 C14.4914618,14.9879345 14.5706618,14.9674255 14.6415709,14.9270618 C14.7849164,14.8448073 14.8734982,14.6922982 14.8734982,14.5269164 L14.8734982,10.5625527 C14.8734982,10.3079345 14.6670982,10.1015345 14.41248,10.1015345" id="Fill-5"></path>
            <path d="M14.3545091,19.7653527 C11.4697091,19.7653527 9.12272727,17.4183709 9.12272727,14.5335709 C9.12272727,11.6492073 11.4697091,9.30244364 14.3545091,9.30244364 C17.2390909,9.30244364 19.5858545,11.6492073 19.5858545,14.5335709 C19.5858545,17.4183709 17.2390909,19.7653527 14.3545091,19.7653527 M14.3545091,8.38040727 C10.9613455,8.38040727 8.20090909,11.1408436 8.20090909,14.5335709 C8.20090909,17.9267345 10.9613455,20.6876073 14.3545091,20.6876073 C17.7474545,20.6876073 20.5078909,17.9267345 20.5078909,14.5335709 C20.5078909,11.1408436 17.7474545,8.38040727 14.3545091,8.38040727" id="Fill-7"></path>
        </g>
    </g>
</svg>