<?xml version="1.0" encoding="UTF-8"?>
<svg width="13px" height="10px" viewBox="0 0 13 10" version="1.1" xmlns="http://www.w3.org/2000/svg" xmlns:xlink="http://www.w3.org/1999/xlink">
    <!-- Generator: Sketch 51.1 (57501) - http://www.bohemiancoding.com/sketch -->
    <title>BIM/icons/dem/equal-housing/14x10</title>
    <desc>Created with Sketch.</desc>
    <defs></defs>
    <g id="Footer" stroke="none" stroke-width="1" fill="none" fill-rule="evenodd">
        <g id="Footer-specs" transform="translate(-233.000000, -1386.000000)" fill="#212121">
            <g id="Max-Smartphone" transform="translate(209.000000, 1051.000000)">
                <g id="Max-Mobile" transform="translate(0.000000, 31.000000)">
                    <g id="ehl" transform="translate(24.000000, 301.000000)">
                        <g id="BIM/icon/dem/equal-housing/14x10" transform="translate(0.000000, 3.000000)">
                            <g id="icon/dem/ehl">
                                <g id="icn-dem-ehl-glob-14x11">
                                    <path d="M0,3.59057617 L0,5.10512129 L1,5 L1,10 L12,10 L12,5 L13,5.10512129 L13,3.47385445 L6.4516692,0 L0,3.59057617 Z M11,9 L2,9 L2,4.21850581 L6.5252375,1.63126685 L11,4.21850581 L11,9 Z" id="Shape" fill-rule="nonzero"></path>
                                    <polygon id="Shape" fill-rule="nonzero" points="9 6 4 6 4 5 9 5"></polygon>
                                    <polygon id="Shape" fill-rule="nonzero" points="9 8 4 8 4 7 9 7"></polygon>
                                </g>
                            </g>
                        </g>
                    </g>
                </g>
            </g>
        </g>
    </g>
</svg>