<?xml version="1.0" encoding="UTF-8"?>
<svg width="8px" height="15px" viewBox="0 0 8 15" version="1.1" xmlns="http://www.w3.org/2000/svg" xmlns:xlink="http://www.w3.org/1999/xlink">
    <!-- Generator: Sketch 52.2 (67145) - http://www.bohemiancoding.com/sketch -->
    <title>icon-top-tasks-caret</title>
    <desc>Created with Sketch.</desc>
    <g id="icon-top-tasks-caret" stroke="none" stroke-width="1" fill="none" fill-rule="evenodd">
        <path d="M7.84335544,6.82866874 C7.84635674,6.8366688 7.84835761,6.84466887 7.85235936,6.85166892 C7.89037591,6.92866953 7.92238985,7.00867017 7.94840118,7.09067082 C7.95240292,7.10967097 7.95340335,7.12967113 7.9574051,7.14767127 C7.97541294,7.21867184 7.99041947,7.29067241 7.99742252,7.36267298 C8.0024247,7.40767334 7.99842296,7.45367371 7.99942339,7.49967407 C7.99842296,7.54567444 8.0024247,7.59067479 7.99742252,7.63667516 C7.99041947,7.70867573 7.97541294,7.7806763 7.9574051,7.85167687 C7.95340335,7.86967701 7.95240292,7.88967717 7.94740074,7.90767731 C7.92238985,7.99067797 7.89037591,8.07067861 7.85035848,8.14967924 C7.84735718,8.15667929 7.84535631,8.16467935 7.84335544,8.16967939 C7.8003367,8.25168005 7.74831405,8.33268069 7.69028878,8.40868129 C7.68928835,8.40868129 7.68828791,8.41068131 7.68628704,8.41268132 C7.67728312,8.42368141 7.67128051,8.43768152 7.66027572,8.45168163 L2.60407407,14.4737295 C2.08084624,15.0967344 1.1504411,15.1787351 0.527169709,14.6547309 C-0.0971021207,14.1337268 -0.178137406,13.2037194 0.34408999,12.5787144 L4.60894706,7.49967407 L0.34408999,2.41963371 C-0.178137406,1.79662876 -0.096101685,0.866621374 0.528170145,0.343617219 C1.15144154,-0.17738692 2.08284711,-0.0973862849 2.60607494,0.525618665 L7.66127615,6.54966652 C7.67128051,6.56166662 7.67728312,6.57466672 7.68628704,6.58766683 C7.68928835,6.59066685 7.69028878,6.59366687 7.69329009,6.5966669 C7.75031492,6.67066749 7.80133714,6.7486681 7.84335544,6.82866874" id="Fill-1" fill="#787070"></path>
    </g>
</svg>