<?xml version="1.0" encoding="UTF-8"?>
<svg width="13px" height="24px" viewBox="0 0 13 24" version="1.1" xmlns="http://www.w3.org/2000/svg" xmlns:xlink="http://www.w3.org/1999/xlink">
    <!-- Generator: Sketch 51.1 (57501) - http://www.bohemiancoding.com/sketch -->
    <title>BIM/icon/masthead/back-chevron</title>
    <desc>Created with Sketch.</desc>
    <defs>
        <polygon id="path-1" points="0 1.13207552e-05 13.0269372 1.13207547e-05 13.0269372 23.8943774 0 23.8943774"></polygon>
    </defs>
    <g id="Page-1" stroke="none" stroke-width="1" fill="none" fill-rule="evenodd">
        <g id="M2-Masthead-specs" transform="translate(-216.000000, -140.000000)">
            <g id="masthead" transform="translate(200.000000, 100.000000)">
                <g id="masthead-xsmall">
                    <g id="BIM/masthead/320" transform="translate(0.000000, 31.000000)">
                        <g id="BIM/icon/masthead/back-chevron" transform="translate(16.000000, 9.000000)">
                            <g id="back-chevron">
                                <mask id="mask-2" fill="white">
                                    <use xlink:href="#path-1"></use>
                                </mask>
                                <g id="Clip-2"></g>
                                <path d="M12.7116566,0.342916981 C13.170034,0.799369811 13.1259962,1.41340755 12.5965245,1.94548302 C10.4968642,4.05533208 8.35588302,6.19518113 6.28543019,8.26450189 C5.38961887,9.15986038 4.49380755,10.0552189 3.59844906,10.9510302 C2.81369434,11.7358981 2.81437358,12.1663132 3.60127925,12.9531057 C5.25014717,14.6020868 6.89958113,16.2505019 8.54901509,17.8990302 L12.1655434,21.5138604 L12.2753547,21.6229925 C12.4228642,21.7692566 12.5621094,21.907483 12.687317,22.0500113 C13.1330151,22.5569547 13.1384491,23.1218604 12.7021472,23.5611057 C12.4855811,23.7791434 12.2306377,23.8943887 11.9649396,23.8943887 C11.7032038,23.8943887 11.4442981,23.7809547 11.2159585,23.5663132 C10.5243736,22.9167283 9.84014717,22.2269547 9.17867547,21.5599358 C8.93833585,21.3176717 8.69788302,21.0754075 8.45663774,20.8342755 C7.57622264,19.9546528 6.6966,19.0745774 5.81675094,18.1945019 C4.11184528,16.4886906 2.34875094,14.7250302 0.610449057,12.9939736 C0.275807547,12.6606906 0.0629773585,12.3550302 -7.92452831e-05,11.8407283 C0.0159962264,11.8071057 0.0320716981,11.772917 0.0483735849,11.7380491 C0.146184906,11.5291811 0.257241509,11.2924642 0.398750943,11.1495962 C3.6216566,7.89510566 7.13901509,4.37344528 11.151883,0.383218868 C11.4041094,0.132577358 11.6849774,1.13207547e-05 11.9643736,1.13207547e-05 C12.2279208,1.13207547e-05 12.4862604,0.118539623 12.7116566,0.342916981 Z" id="Fill-1" fill="#FFFFFF" mask="url(#mask-2)"></path>
                            </g>
                        </g>
                    </g>
                </g>
            </g>
        </g>
    </g>
</svg>