<?xml version="1.0" encoding="utf-8"?><!DOCTYPE svg PUBLIC "-//W3C//DTD SVG 1.1//EN" "http://www.w3.org/Graphics/SVG/1.1/DTD/svg11.dtd"><svg version="1.1" id="Layer_1" xmlns="http://www.w3.org/2000/svg" xmlns:xlink="http://www.w3.org/1999/xlink" x="0px" y="0px"	 width="16px" height="16px" viewBox="0 0 16 16" enable-background="new 0 0 16 16" xml:space="preserve"><g>	<path fill="none" d="M8.122,12.292c0.582,0,1.253-0.438,1.354-1.003V8.691c0-0.632-0.742-1.342-1.375-1.342		c-0.584,0-1.256,0.607-1.355,1.198v2.6C6.747,11.779,7.491,12.292,8.122,12.292z"/>	<path fill="none" d="M8.055,1.176c-1.336,0-2.189,0.594-2.189,1.931v1.779h4.582V3.107C10.448,1.77,9.393,1.176,8.055,1.176z"/>	<path fill="#4F4D4F" d="M8.102,12.786c0.63,0,1.375-0.513,1.375-1.146v-0.352c-0.102,0.564-0.772,1.003-1.354,1.003		c-0.631,0-1.375-0.513-1.375-1.146v-2.6c-0.008,0.049-0.02,0.097-0.02,0.145v2.949C6.727,12.273,7.471,12.786,8.102,12.786z"/>	<path fill="#757575" d="M11.891,15.085c0.663,0,1.194-0.516,1.248-1.168h-0.117V5.732c-0.206-0.288-0.63-0.351-1.131-0.351h-0.524		h-0.938H5.845h-1.07H4.257c-0.461,0-0.848,0.064-1.069,0.299v8.237H3.021V6.068C3.02,6.079,3.015,6.086,3.014,6.097		C3.011,6.131,2.993,6.149,2.993,6.186v7.632c0,0.352,0.146,0.67,0.378,0.9c0.228,0.226,0.54,0.366,0.886,0.366H11.891z		 M6.727,8.691c0-0.048,0.012-0.096,0.02-0.145c0.099-0.59,0.771-1.198,1.355-1.198c0.632,0,1.375,0.71,1.375,1.342v2.598v0.352		c0,0.633-0.744,1.146-1.375,1.146c-0.631,0-1.375-0.513-1.375-1.146V8.691z"/>	<path fill="#4F4D4F" d="M13.188,5.667h-0.014c-0.016-0.671-0.574-0.78-1.263-0.78h-0.524V3.283		c-0.166-2.042-1.423-3.232-3.332-3.232c-1.909,0-3.26,1.323-3.26,3.232v1.604H4.278c-0.697,0-1.264,0.106-1.264,0.804v0.406		C3.015,6.086,3.02,6.079,3.021,6.068v7.849h0.167V5.68c0.221-0.234,0.607-0.299,1.069-0.299h0.518h1.07h4.583h0.938h0.524		c0.501,0,0.925,0.063,1.131,0.351v8.185h0.117c-0.054,0.652-0.585,1.168-1.248,1.168H4.257c-0.346,0-0.658-0.141-0.886-0.366		c0.23,0.238,0.549,0.391,0.907,0.391h7.633c0.672,0,1.214-0.528,1.254-1.192h0.022V5.667z M10.448,4.886H5.866V3.107		c0-1.337,0.853-1.931,2.189-1.931c1.337,0,2.393,0.594,2.393,1.931V4.886z"/></g></svg>