<svg xmlns="http://www.w3.org/2000/svg" xmlns:xlink="http://www.w3.org/1999/xlink" width="33" height="33"><defs><path d="M11.505 0h10c3.313 0 4.97 0 6.752.564a7.01 7.01 0 0 1 4.189 4.189C33 6.536 33 8.193 33 11.505v10c0 3.313 0 4.97-.564 6.752a7.01 7.01 0 0 1-4.189 4.189c-1.783.564-3.44.564-6.752.564h-10c-3.313 0-4.97 0-6.752-.564a7.01 7.01 0 0 1-4.189-4.189C0 26.464 0 24.808 0 21.495v-10c0-3.313 0-4.97.564-6.752A7.01 7.01 0 0 1 4.753.564C6.536 0 8.192 0 11.505 0" id="A"/></defs><g fill="none" fill-rule="evenodd"><mask id="B" fill="#fff"><use xlink:href="#A"/></mask><g mask="url(#B)"><path fill="#d71f29" d="M0 0h33v26.996H0z"/><path d="M26.504 19.765c-.558-1.66-3.88-.656-5.663-.656-1.987 0-1.28-1.594-2.856-1.594-.798 0-1.472.718-1.532 1.645-.126 1.95-1.3 2.246-1.93 2.246-.208 0-.3.05-.412.156s-1.782 2.164-2.34 2.826l-.542.007c-.34.01-.46.618-.45 1.048l.812-.266c.185-.066.423-.286.423-.286l2.402-2.143a12.41 12.41 0 0 0 4.107-1.712l1.425-1.067.724.197c1.24.3 2.63 1.368 4.196 1.2l2.243 3.7c.138.002.265.074.338.192-.01.1-.014.183-.012.275a.86.86 0 0 0 .113.42h1.128a25.03 25.03 0 0 1-1.646-2.412c-.893-1.68-.53-3.786-.53-3.786zm-7.34 1.56l-.82.65c-.257.254-.167.383.036.58.636.596 1.228 1.237 1.772 1.92a1.39 1.39 0 0 0-.155.52c-.017.18.418.593.836.7l-.077-1.407-1.346-1.98a4.87 4.87 0 0 0 2.022-.559c-1.117-1.38-2.268-.412-2.268-.412zm-7.74-11.074a1.11 1.11 0 0 0-.422.09l-.005.36c-.002.048-.022.094-.057.126a.18.18 0 0 1-.13.049l-1.705.014-.248-.078a1.82 1.82 0 0 1-.97-.875S6.83 10.6 6.83 11.1c0 .25.077.373.42.38l1.008.037h.092l.465.034c.82.088.852.475.668.856l-.676 1.363-.97-1.02-1.212-.037a.76.76 0 0 1-.733-.787l.022-.632s.595-.988 1.076-1.547a7.56 7.56 0 0 1 .819-.827c.015-.014.03-.026.044-.037h.005a.53.53 0 0 1 .202-.1c.185-.04.3-.376.3-.376-.2-.038-.747-.156-.715-.322.022-.117.3-.194.65-.233l.077-.246c.13-.467 1.023-.38 1.228-.316l-.036.537c.485.02.6.25.65.38.012.04-.012.068-.065.067l-.6-.01a1.68 1.68 0 0 1-.044.31 2.55 2.55 0 0 1-.103.343c-.03.078-.053.103-.113.102l-.283-.01c-.072 0-.115.156-.115.156.026.06.55.934.55.934a1.23 1.23 0 0 0 1.007.02c.563-.225.852-.272 1.097-.272 2.623 0 6.832 4.166 11.44 3.856l.095.18c-3.944 1.294-9.444-3.632-11.644-3.632zm1.474 8.905c1.372 0 1.877-1.438 3.54-1.748l.353-.5c-.503-.24-1.054-.363-1.6-.36-1.74 0-2.144 1.02-3.385 1.04-.768.012-1.317-.608-1.345-.622l-.06.058c.001.005.324 2.133 2.5 2.133zm17.17-4.173l-.064-.28a2.68 2.68 0 0 0-1.09-.056H28.9c-.852.115-2.074.642-3.177 2.412a3.8 3.8 0 0 0-.196.317c.33.107 1.022.438 1.445 1.4h.048s.894-3.512 2.075-3.512c.232.436.703.907.787 1.04.104.16.098.363-.202.363-.387 0-.432.25-.432.335 0 .384.697.43.697.43l.284-.215c.37-.272.294-.55.294-.55-.102-.156-.348-1.18-.465-1.684zm.127 4.834c0-.054-.03-.128-.162-.128h-2.698c-.317.85.335 1.556.875 1.556.585 0 .852-.238 1.076-.45.193.612.44 1.378.44 1.848a.91.91 0 0 0-.53.097c-.163.085-.383.53-.325.957l.828-.35c.2-.097.542-.293.542-.656-.027-1.284-.123-1.467-.047-2.875zm-8.61-4.738c.58.76 1.317 1.1 2.487.867-.5.36-1.34.7-2.676.47l-.095-.017c-1.416-.252-2.812-.32-3.743.457l.2-.05a3.01 3.01 0 0 1 .577-.045c1.777 0 2.365.545 3.884.545 2.778 0 3.2-3.666 6.376-3.725h.207c.067 0 .13.01.193.02l.232.04a2.03 2.03 0 0 1 .581.241l.037.025.086.1s.073-1.338-.32-1.338c-.274 0-.363.6-.52.6s-.465-.868-1.24-.868c-.968 0-1.808 1.138-3.037.356a1.31 1.31 0 0 0 .666 1.083c-.35.064-.688.183-1 .352-.876.434-1.37 1.298-2.882.9zM3.982 21.5h-.035a8.58 8.58 0 0 0-.93.036c-.542.06-.615.183-.614.305s.077.244.62.303a8.26 8.26 0 0 0 .93.033h.03a1.09 1.09 0 0 0 .068.17l-.008.008c-.206.2-.4.4-.58.633-.3.395-.27.53-.185.615s.222.123.62-.2c.22-.182.43-.377.628-.583l.004-.005c.055.028.1.052.17.07v.1l.037 1.127c.06.654.182.744.304.744s.243-.092.302-.753c.035-.396.033-.856.033-1.126v-.086c.058-.018.115-.042.17-.07l.064.064.82.772c.504.42.653.397.74.3s.108-.237-.318-.747c-.254-.305-.577-.627-.775-.82l-.06-.06a1.09 1.09 0 0 0 .07-.17h.1l1.124-.037c.653-.06.742-.183.742-.305s-.1-.244-.75-.303c-.395-.035-.852-.033-1.124-.033H6.1c-.018-.058-.042-.115-.07-.17l.064-.065.77-.823c.418-.506.395-.655.3-.74s-.232-.107-.745.318c-.305.258-.626.582-.82.776l-.06.06c-.055-.028-.1-.05-.17-.07a6.6 6.6 0 0 0-.036-.795c-.06-.467-.182-.527-.304-.527s-.243.065-.303.534a6.44 6.44 0 0 0-.033.79c-.34.1-.605.377-.713.717zm1.505-3.82c-2.28-.242-4.327 1.415-4.572 3.705a4.38 4.38 0 0 0-.024.454v.694s.68-.112.68-.584c0-.512.052-.713.052-.713.735-.267 2.62-1.103 3.23-2.824l.05-.043c1.002-.038 1.97.362 2.656 1.097a3.48 3.48 0 0 1 .917 2.732c-.18 1.838-1.86 3.284-3.807 3.092-.647-.063-1.007-.264-1.46-.492-.627-.3-.775-.4-1.253-.054.984.815 1.8 1.13 2.656 1.22 2.28.243 4.323-1.414 4.565-3.702S7.77 17.922 5.5 17.68zm-2.15-.807s.285-.702.143-3.918c-.112-.14-.322-.4-.783-.4-.382 0-.72.188-.72.435 0 .144.063.17.063.254s-.077.148-.077.45.077.593.2.62c.208.048.45-.078.557.217S2.37 16.1.815 16.1v-4.115L.8 10.78c2.555.062 3.613.44 3.613.44L4.4 15.695a3.76 3.76 0 0 1-.029.608 1.83 1.83 0 0 1-.077.371l-.012.037-.017.047c.328-.078.9-.105 1.758-.105 2.387 0 2.983.12 3.802-.58l1.732-1.635-1.525-.023 2.032-2.04c.1-.1.124-.254.06-.38s-.203-.196-.342-.172L9.222 14.4l.004.005-4-.06V9.42c-.33-.078-1.07-.204-2.118-.343l.035-1.066L.76 7.928C.608 7.635.325 7.435 0 7.4v11.28c2.33-.605 3.3-1.758 3.337-1.8z" fill="#fff"/><path fill="#ffce42" d="M.064 26.854H33V33H.064z"/></g></g></svg>