<?xml version="1.0" encoding="UTF-8"?>
<svg width="10px" height="14px" viewBox="0 0 10 14" version="1.1" xmlns="http://www.w3.org/2000/svg" xmlns:xlink="http://www.w3.org/1999/xlink">
    <!-- Generator: Sketch 52.6 (67491) - http://www.bohemiancoding.com/sketch -->
    <title>icon/ind/lock_STM/2_M</title>
    <desc>Created with Sketch.</desc>
    <defs>
        <path d="M5.00111111,12.7826558 C2.93666667,12.7826558 1.25777778,11.1447154 1.25777778,9.13062331 C1.25777778,7.11653117 2.93777778,5.47750678 5.00111111,5.47750678 C7.06444444,5.47750678 8.74444444,7.11653117 8.74444444,9.13062331 C8.74444444,11.1447154 7.06555556,12.7826558 5.00111111,12.7826558 Z M2.81777778,3.34742547 C2.81777778,2.17235772 3.79777778,1.21734417 5.00222222,1.21734417 C6.20666667,1.21734417 7.18555556,2.17344173 7.18555556,3.34742547 L7.18555556,4.74796748 C6.49888889,4.42818428 5.78666667,4.24932249 5.00222222,4.24932249 C4.21777778,4.24932249 3.50444444,4.42818428 2.81777778,4.74796748 C2.81777778,4.74796748 2.81777778,3.34742547 2.81777778,3.34742547 Z M8.49555556,5.64119241 L8.49555556,3.3897019 C8.49555556,1.52086721 6.91777778,0 5.00111111,0 C3.08444444,0 1.50666667,1.52086721 1.50666667,3.3897019 L1.50666667,5.64119241 C0.571111111,6.52682927 0,7.76260163 0,9.13062331 C0,11.8157182 2.24444444,14 4.99666667,14 C7.74888889,14 10,11.8157182 10,9.13062331 C10,7.76260163 9.43111111,6.52574526 8.49555556,5.64119241 Z M5.00111111,8.09539295 C5.17333333,8.09539295 5.31333333,7.95880759 5.31333333,7.7897019 L5.31333333,6.27100271 C5.31333333,6.10189702 5.17333333,5.96531165 5.00111111,5.96531165 C4.82888889,5.96531165 4.68888889,6.10189702 4.68888889,6.27100271 L4.68888889,7.7897019 C4.68888889,7.95880759 4.82888889,8.09539295 5.00111111,8.09539295 Z M3.94,9.13062331 C3.94,8.96260163 3.8,8.82601626 3.62666667,8.82601626 L2.07,8.82601626 C1.89666667,8.82601626 1.75666667,8.96260163 1.75666667,9.13062331 C1.75666667,9.29864499 1.89666667,9.43523035 2.07,9.43523035 L3.62666667,9.43523035 C3.8,9.43414634 3.94,9.29864499 3.94,9.13062331 Z M5.00111111,10.1647696 C4.82888889,10.1647696 4.68888889,10.301355 4.68888889,10.4704607 L4.68888889,11.9891599 C4.68888889,12.1582656 4.82888889,12.2948509 5.00111111,12.2948509 C5.17333333,12.2948509 5.31333333,12.1582656 5.31333333,11.9891599 L5.31333333,10.4704607 C5.31333333,10.301355 5.17333333,10.1647696 5.00111111,10.1647696 Z M6.06222222,9.13062331 C6.06222222,9.29864499 6.20222222,9.43523035 6.37555556,9.43523035 L7.93222222,9.43523035 C8.10555556,9.43523035 8.24555556,9.29864499 8.24555556,9.13062331 C8.24555556,8.96260163 8.10555556,8.82601626 7.93222222,8.82601626 L6.37555556,8.82601626 C6.20222222,8.82601626 6.06222222,8.96260163 6.06222222,9.13062331 Z M4.25111111,8.39891599 C4.37333333,8.2796748 4.37222222,8.08672087 4.25,7.96747967 L3.14888889,6.89322493 C3.02666667,6.77398374 2.82888889,6.77398374 2.70666667,6.89214092 C2.58444444,7.01138211 2.58555556,7.20433604 2.70777778,7.32357724 L3.80888889,8.39783198 C3.93111111,8.51707317 4.12888889,8.51707317 4.25111111,8.39891599 Z M4.25111111,9.86233062 C4.12888889,9.74308943 3.93111111,9.74417344 3.80888889,9.86341463 L2.70777778,10.9376694 C2.58555556,11.0569106 2.58555556,11.2498645 2.70666667,11.3691057 C2.82888889,11.4883469 3.02666667,11.4872629 3.14888889,11.3680217 L4.25,10.2937669 C4.37222222,10.1734417 4.37333333,9.9804878 4.25111111,9.86233062 Z M5.75111111,9.86233062 C5.62888889,9.98157182 5.63,10.1745257 5.75222222,10.2937669 L6.85333333,11.3680217 C6.97555556,11.4872629 7.17333333,11.4872629 7.29555556,11.3691057 C7.41777778,11.2498645 7.41666667,11.0569106 7.29444444,10.9376694 L6.19333333,9.86341463 C6.07111111,9.74308943 5.87333333,9.74308943 5.75111111,9.86233062 Z M5.75111111,8.39891599 C5.87333333,8.51815718 6.07111111,8.51707317 6.19333333,8.39783198 L7.29444444,7.32357724 C7.41666667,7.20433604 7.41666667,7.01138211 7.29555556,6.89214092 C7.17333333,6.77289973 6.97555556,6.77398374 6.85333333,6.89322493 L5.75222222,7.96747967 C5.63,8.08672087 5.62888889,8.2796748 5.75111111,8.39891599 Z" id="path-1"></path>
    </defs>
    <g id="icon/ind/lock_STM/2_M" stroke="none" stroke-width="1" fill="none" fill-rule="evenodd">
        <g id="icn-ind-lock-gray-glob-9x14">
            <mask id="mask-2" fill="white">
                <use xlink:href="#path-1"></use>
            </mask>
            <use id="Shape" fill="#BFC0BE" fill-rule="nonzero" xlink:href="#path-1"></use>
            <g id="color/606265" mask="url(#mask-2)" fill="#606265">
                <rect id="Rectangle-Copy-10" x="0" y="0" width="10" height="14"></rect>
            </g>
        </g>
    </g>
</svg>