<?xml version="1.0" encoding="UTF-8"?>
<svg width="375px" height="101px" viewBox="0 0 375 101" version="1.1" xmlns="http://www.w3.org/2000/svg" xmlns:xlink="http://www.w3.org/1999/xlink">
    <!-- Generator: Sketch 52.2 (67145) - http://www.bohemiancoding.com/sketch -->
    <title>stagecoach-BIM</title>
    <desc>Created with Sketch.</desc>
    <defs>
        <polygon id="path-1" points="0 0 375 0 375 101 0 101"></polygon>
    </defs>
    <g id="Page-1" stroke="none" stroke-width="1" fill="none" fill-rule="evenodd">
        <g id="sign-on-front-porch" transform="translate(-313.000000, -970.000000)">
            <g id="stagecoach-BIM" transform="translate(313.000000, 970.000000)">
                <mask id="mask-2" fill="white">
                    <use xlink:href="#path-1"></use>
                </mask>
                <g id="Clip-2"></g>
                <path d="M74.5733547,68.2478599 C71.1593259,68.1282831 68.0729917,67.8139858 65.261477,67.3461336 C65.6191993,69.2221163 65.808505,71.158214 65.808505,73.1380912 C65.808505,74.882082 65.6609771,76.5907879 65.3822409,78.2550609 C69.2832421,78.6307802 73.85791,78.8372624 78.7935642,78.6026829 C83.2840238,78.3896664 87.2444278,77.836869 90.7119843,77.0749757 C90.9169566,73.1740296 92.0018736,69.5017821 93.7754713,66.2581813 C88.6309282,67.7682461 82.2891902,68.5183778 74.5733547,68.2478599 Z M79.4091339,5.24855979 L79.5684117,0.686347733 L67.5122554,0.265542153 C66.4155885,0.226336664 65.4742826,0.960132731 65.1981576,1.97816859 L50.9604174,1.48025888 C49.6790142,1.43517257 48.6051945,2.43752624 48.5608056,3.72019915 L48.5027083,5.37597763 C53.1113208,5.15054607 58.7624196,4.96824054 65.3476437,4.96824054 C70.5098119,4.96824054 78.8986615,5.22830362 79.4091339,5.24855979 Z M105.792461,3.42027716 L92.811971,2.96745376 C91.9228874,1.26528212 90.1734425,0.0740886819 88.1191502,0.00351880192 C85.0778577,-0.104296293 82.5254959,2.27874401 82.4197458,5.32305022 L82.4171347,5.38381873 C91.6297901,5.83664212 99.5832368,6.60637655 105.656683,7.32710413 L105.792461,3.42027716 Z M110.577323,78.4517418 C110.577323,80.1898518 111.422671,81.8377892 112.837241,82.860399 C112.864005,82.8793483 112.895338,82.8891497 112.926671,82.8891497 C112.97106,82.8891497 113.013491,82.8715072 113.044171,82.8355689 C113.096393,82.7741469 113.093782,82.6839743 113.038296,82.6264729 C112.057171,81.6195453 111.517976,80.2937463 111.517976,78.8908433 C111.517976,75.9393234 113.916283,73.5379872 116.864228,73.5379872 C117.112284,73.5379872 117.370131,73.5588968 117.676284,73.6059434 C117.683464,73.6065968 117.69195,73.6079036 117.699784,73.6079036 C117.770284,73.6079036 117.832298,73.5595502 117.849923,73.4896337 C117.8682,73.4118762 117.82577,73.3321584 117.749395,73.3060214 C117.180172,73.113261 116.593978,73.0152473 116.006478,73.0152473 C113.012838,73.0152473 110.577323,75.4538287 110.577323,78.4517418 Z M118.026825,78.4517418 C118.026825,77.3369991 117.122075,76.4313523 116.007783,76.4313523 C114.892186,76.4313523 113.988741,77.3369991 113.988741,78.4517418 C113.988741,79.5690982 114.892186,80.4734382 116.007783,80.4734382 C117.122075,80.4734382 118.026825,79.5690982 118.026825,78.4517418 Z M109.230642,81.1889383 C108.873573,80.3205368 108.673823,79.3711105 108.673823,78.3739842 C108.673823,74.6945491 111.35674,71.6469758 114.870644,71.0654277 C114.959422,68.7163655 115.191811,66.517591 115.794325,66.517591 C116.392922,66.517591 116.624658,68.6653983 116.714089,70.9909373 C117.429534,71.0510523 118.115603,71.215062 118.757937,71.4653237 L118.762506,71.4672839 C119.573256,70.0624206 120.207757,68.9620532 120.261937,68.8673066 C121.536813,66.6567705 123.437049,63.2308642 124.340494,63.7542574 C125.244591,64.275037 123.257535,67.5839803 121.953285,69.846137 C121.898452,69.941537 121.275049,71.0229551 120.47409,72.4108294 C121.040701,72.8290213 121.543993,73.3249707 121.971563,73.8836489 C124.266077,72.6356075 126.708772,71.4692442 127.041689,72.0475252 C127.37787,72.6297267 125.155814,74.1567805 122.923966,75.5217849 C123.190952,76.1634481 123.369813,76.8495441 123.447494,77.5663512 C125.0468,77.5663512 126.287731,77.5670046 126.394786,77.5670046 C128.946495,77.5670046 132.861205,77.5010087 132.859899,78.545835 C132.861205,79.588701 129.004592,79.5207448 126.394133,79.5227051 C126.284467,79.5227051 125.017425,79.5227051 123.395924,79.5213982 C123.290827,80.2029203 123.094341,80.8511177 122.81691,81.4568425 C124.241924,82.2808112 125.360786,82.9270483 125.454786,82.981936 C127.665092,84.2580747 131.087607,86.1608478 130.564079,87.0645343 C130.044468,87.9708345 126.737495,85.9791957 124.477577,84.6749597 C124.379661,84.6187652 123.23273,83.9568459 121.779646,83.1158881 C121.35991,83.6209855 120.872285,84.0653144 120.334396,84.4436473 C121.194104,85.9347628 121.878868,87.1226891 121.93566,87.2207028 C123.210535,89.4318924 125.225008,92.7931096 124.320911,93.3132358 C123.418119,93.8372825 121.548563,90.4584228 120.243007,88.1975729 C120.184909,88.0962921 119.476645,86.8691602 118.597353,85.3434133 C118.020298,85.5525092 117.413214,85.6969161 116.78002,85.7550709 C116.78002,87.5637508 116.78002,89.0300361 116.779367,89.1476526 C116.78002,91.7012368 116.845297,95.6191719 115.802158,95.6172117 C114.758366,95.6191719 114.826908,91.7580847 114.826255,89.1456923 L114.826255,85.6760065 C114.227005,85.5734188 113.653213,85.402875 113.11206,85.1650283 C112.179893,86.7809479 111.412226,88.1119742 111.352824,88.2165222 C110.077295,90.4270584 108.177712,93.8529647 107.274267,93.3295714 C106.370169,92.8081384 108.357225,89.4998486 109.661476,87.2376918 C109.722837,87.1298768 110.500948,85.7812079 111.442254,84.1496062 C110.981393,83.7784609 110.570143,83.3517745 110.209157,82.881962 C108.083059,84.1104007 105.462808,85.5485887 105.008475,84.7572912 C104.550877,83.9659938 107.077781,82.434366 109.230642,81.1889383 Z M244.866153,96.15302 C243.291,94.136551 241.309819,90.5642776 240.34893,87.7780742 C235.505317,78.6209788 237.483887,67.1925788 237.483887,67.1925788 C236.282776,67.1925788 234.240887,67.4467611 232.719914,70.0212548 C229.459288,63.0289559 225.365717,59.1842043 216.113895,59.1842043 C215.608645,59.1842043 218.054604,61.7175323 221.860952,66.5829335 C214.29852,63.9051986 204.979461,63.4863533 199.922391,63.8882095 C201.226641,61.5365336 201.826544,59.5971688 201.961669,58.5157507 C201.961669,58.5157507 199.028085,62.0540461 195.655834,62.0540461 C188.279443,62.0540461 193.245778,54.9709211 189.964263,54.9709211 C185.623942,54.9709211 181.952066,58.8679467 181.629594,63.9065054 C180.948746,74.5037491 174.559356,76.1046399 171.140757,76.1046399 C170.009493,76.1046399 169.465729,76.3764646 168.898465,76.9730414 C168.315534,77.5859539 159.204712,88.7281538 156.174517,92.3206835 C155.404239,92.3206835 154.345433,92.3285246 153.208947,92.3572753 C151.364849,92.4036684 150.706196,95.7106514 150.758418,98.0505657 C150.758418,98.0505657 154.694669,96.779001 155.177072,96.6058434 C156.183656,96.2458063 156.606003,95.5231185 156.644517,94.9650937 L157.475503,95.0526526 C159.046087,93.6144646 168.644534,84.1221623 170.540202,83.4131964 C180.008746,81.4300521 187.769623,77.3840456 192.885444,74.1012394 C192.367791,76.2398988 191.444763,78.0943184 190.328513,79.1972995 C188.930915,80.5779861 189.425068,81.279111 190.530874,82.348114 C192.231361,83.9914774 196.422848,87.9518852 200.163266,92.7676261 C199.842099,93.3772714 199.422363,94.3802785 199.317918,95.6002226 C199.231751,96.600616 201.58828,98.8183398 203.866475,99.3463071 C203.866475,99.3463071 203.735267,94.9683608 203.686961,94.458036 C203.581211,93.3217303 203.459794,93.0858439 202.86903,92.7160055 C203.141892,92.1422985 203.442822,91.7012368 203.442822,91.7012368 L196.121917,80.9491314 C198.552862,79.0829502 202.412739,72.9851898 204.57735,69.3750177 C211.32838,71.0445181 220.05798,76.8018441 228.576079,75.8850891 C228.576079,75.8850891 233.295011,83.3119156 235.669817,87.7780742 L235.647623,87.7780742 C237.780249,89.9729281 239.765999,94.0130537 240.777152,96.0367104 C240.777152,96.0367104 241.854889,95.9648337 242.612764,97.0821901 C242.593181,97.2069942 242.551403,97.5885943 242.551403,98.5765727 C242.551403,99.8683935 243.146736,100.832849 243.16632,100.855065 L243.441139,100.855065 L249.299169,100.855065 C248.745613,100.118655 246.827751,97.6336806 246.542487,97.2997806 C245.946501,96.6032297 245.428195,96.2543009 244.866153,96.15302 Z M54.4136128,61.9488447 C53.719057,60.9321157 44.3099155,66.6567705 43.570318,67.0841103 C43.9469709,67.6146912 44.2733599,68.1812105 44.5475266,68.7784408 C45.290388,68.3491407 55.1081686,62.9662271 54.4136128,61.9488447 Z M44.6441378,56.5463283 C43.8940959,56.1137611 41.0878034,60.7733334 39.4238724,63.6386012 C40.0192059,63.9136931 40.5838588,64.2417123 41.112609,64.6200453 C42.7700122,61.7299474 45.3948324,56.9808558 44.6441378,56.5463283 Z M37.9361914,73.6712858 C38.2599693,71.6548169 36.5444688,69.9434973 34.5339127,70.2741302 C33.3145234,70.4740782 32.3314398,71.4574826 32.1290786,72.6774267 C31.7948563,74.6965094 33.5181902,76.420244 35.5378852,76.0843837 C36.7579272,75.881822 37.7397053,74.8938437 37.9361914,73.6712858 Z M32.2739954,80.0212682 C30.0095086,78.6177117 28.6419388,76.2366317 28.6419388,73.6092105 C28.6419388,69.4521218 32.0788147,66.0706484 36.3048993,66.0706484 C36.5829827,66.0706484 37.1854968,66.1196553 37.1946357,66.1209621 C37.4838163,66.1647416 37.6848719,65.7543908 37.267094,65.6158647 C36.5418577,65.374751 35.7820241,65.2891523 35.0319823,65.2891523 C30.6851338,65.2891523 27.1490356,68.8287545 27.1490356,73.179257 C27.1490356,76.3535947 29.0166333,79.2031803 31.933898,80.4335792 C32.3627732,80.6139245 32.5194399,80.1735162 32.2739954,80.0212682 Z M34.0776209,61.2326911 L34.0776209,62.7224996 C34.5587182,62.6597709 35.5143852,62.6545435 36.0320381,62.7224996 L36.0320381,61.2307308 C36.0320381,58.6202987 36.1005798,50.7622118 35.056135,50.7615584 C34.0136486,50.7622118 34.0776209,58.6771466 34.0776209,61.2326911 Z M62.0419761,66.1150813 C66.4586718,84.4972282 52.9618346,100.993591 35.0541767,100.993591 C17.4063244,100.993591 10.4672947,86.4045752 10.4672947,86.4045752 C14.1796429,85.0271557 18.0277691,97.7532574 35.0391628,97.7532574 C48.5862639,97.7532574 59.5764337,86.7378219 59.5764337,73.1936323 C59.5764337,68.8385559 58.9576002,67.277524 58.2486833,67.4408802 C57.7094887,67.5650309 57.8478777,68.8803751 57.8478777,69.9225877 C57.8478777,72.0338033 57.5032109,74.4776121 56.6186968,76.9181537 L45.4574991,74.0927448 C45.349138,75.2872054 45.0358046,76.4215509 44.5599294,77.4670306 C47.2010691,79.0620406 50.100056,80.9726547 49.7547365,81.5711919 C49.4081114,82.1710358 46.319166,80.6191519 43.6166653,79.1247693 C42.9286373,80.1081737 42.076762,80.9648136 41.1002062,81.6600576 C42.56504,84.2005733 43.7844292,86.3137492 43.843832,86.4182971 C45.1200129,88.6294867 47.1338329,91.9887437 46.231041,92.5134438 C45.3269435,93.0355302 43.4573874,89.6566705 42.1524843,87.3958207 C42.0911232,87.2893124 40.8736923,85.17679 39.4082057,82.6375811 C38.3631082,83.1191552 37.2292329,83.4367197 36.0320381,83.5484553 L36.0320381,89.0378772 C36.0320381,91.5921148 36.0979687,95.5087431 35.0541767,95.5107034 C34.009732,95.5107034 34.0789264,91.6489628 34.0789264,89.0378772 C34.0782736,88.9143799 34.0782736,86.4784122 34.0782736,83.5484553 C32.8817316,83.4367197 31.7478563,83.1185018 30.702106,82.6369277 C29.2372723,85.1774434 28.0185358,87.2912727 27.9578275,87.3958207 C26.6816465,89.6076636 24.7820627,93.03357 23.8779652,92.5121369 C22.9738677,91.9887437 24.9622294,88.679147 26.2671325,86.4182971 C26.3284937,86.3117889 27.5459246,84.1992665 29.0114111,81.6600576 C28.0452997,80.9720013 27.2019106,80.1264696 26.5177993,79.1567872 C26.2638686,79.3025009 26.1052436,79.3933269 26.0726047,79.4122763 C23.8616457,80.6903752 20.506367,82.7068442 19.9841446,81.8031577 C19.4612695,80.8975109 22.8367843,79.0254488 25.0960489,77.719906 C25.1286878,77.7009567 25.2905767,77.6075169 25.5471184,77.4604963 C24.9478683,76.1418851 24.604507,74.6814806 24.604507,73.1374378 C24.604507,68.9287285 27.0902855,65.3113688 30.6675088,63.6497095 L29.9461891,62.3232571 C28.6341054,60.0480319 24.7827154,53.237385 23.8799235,53.7581646 C23.2617428,54.1162414 24.9511321,57.434986 26.4864659,60.2002799 C23.005201,58.4615164 18.6714081,57.5473751 15.552435,57.0782161 C13.4400455,59.2939796 11.2081977,62.3493941 9.84519726,66.6907485 C9.33537767,68.3145092 9.15129429,70.2499535 7.29675209,70.3786782 C7.29675209,58.7803877 20.9065199,41.9409768 40.8834839,45.8536846 C51.2593897,47.8851824 59.5699059,55.8249473 62.0419761,66.1150813 Z M450.595657,76.6064701 C450.223573,76.4176303 441.703515,72.0801964 435.545861,68.994071 C429.390165,65.9059853 428.168817,60.8857225 428.915595,54.7402621 C425.458483,58.7281138 425.2979,63.9548588 425.174525,66.0948251 C424.126163,65.5681647 416.768703,62.1899584 406.053352,63.5621505 C406.65913,58.9195672 404.863338,56.2281104 403.912241,55.2420924 L403.806491,55.3224636 C404.235366,56.5809598 403.711838,60.5524758 400.953198,61.594035 C400.54717,59.360629 398.355142,57.7316409 395.672877,57.7316409 C385.960847,57.7316409 384.704249,76.4169769 376.562802,76.4169769 C374.532663,76.4169769 373.001898,75.2159821 372.511009,76.9331825 C370.181898,85.0748557 366.895161,94.493321 366.895161,94.493321 C367.542064,94.7226731 367.696772,95.6139445 367.458508,96.5235119 C367.455897,96.5254722 367.453939,96.526779 367.452633,96.5280859 C365.433591,98.1642616 367.121022,100.855065 367.121022,100.855065 L372.892232,100.855065 C372.892232,100.855065 371.755093,98.4752918 371.407162,97.6643916 C371.141481,97.0455983 370.777884,96.709738 370.367287,96.4999886 C371.368648,93.2139152 375.422399,82.7349414 377.117011,82.4833729 C387.071222,81.0085931 394.41628,76.6914153 398.241558,73.9457243 C396.931433,76.3013207 395.130419,78.1688088 394.241988,79.0156474 C392.89596,80.2970135 393.50239,81.022315 394.788363,82.3755578 C395.800822,83.4393334 398.440003,85.5361736 402.648463,91.4150367 C402.054435,91.7221463 401.39317,92.2167889 400.947323,93.0100467 C400.455781,93.8843291 401.80181,97.0063928 403.606741,98.4948946 C403.606741,98.4948946 405.43713,94.5168443 405.621866,94.0391907 C406.055311,92.9126864 406.01288,92.5095233 405.540922,91.9639135 L405.976325,91.0850572 C405.704769,90.6328872 399.602601,80.5211382 399.602601,80.5211382 L410.425659,71.3954072 C413.083118,72.0638608 422.579732,77.2193826 431.336749,75.855685 C436.049153,77.2775374 446.795183,78.688935 446.795183,78.688935 L445.372128,80.183971 C445.391711,80.1826641 444.565294,85.0565598 441.989432,89.5403609 L442.092571,90.4760652 C441.203487,90.369557 439.828084,90.374131 438.664181,91.1144613 C437.818181,91.6528833 436.575292,93.9895305 436.878833,96.309842 C436.878833,96.309842 440.929321,94.6534101 441.390182,94.4292854 C442.370654,93.9542455 442.576932,93.7529907 442.714016,93.1400782 C443.311308,92.9159535 444.113572,92.6304068 444.113572,92.6304068 C444.616211,91.9854765 447.209045,84.9585461 450.999726,77.8009307 C451.218407,77.3879662 451.044768,76.8345154 450.595657,76.6064701 Z M346.634891,96.1562871 C345.05321,94.1358976 343.056362,90.5401009 342.090904,87.7375618 C341.757334,87.2109014 341.434209,86.6783602 341.128056,86.1432053 C339.706958,83.6484293 339.286569,82.0514591 338.093291,78.4184171 C336.82168,79.2338913 332.37822,79.1306502 329.511872,78.5660911 C329.660706,78.7072309 334.826138,84.1953459 337.374583,87.7375618 C339.511778,89.9363363 341.299084,93.5687249 342.552418,95.8759679 C342.552418,95.8759679 343.314209,95.8119323 344.023126,96.7319544 C344.015946,96.7652791 343.584459,98.7765206 344.749668,100.849184 C344.757502,100.862906 350.867503,100.849184 350.867503,100.849184 C350.180781,99.7246401 348.93528,98.0505657 348.729655,97.7552177 C348.189155,96.9815627 347.597738,96.3817187 346.634891,96.1562871 Z M362.075048,89.7925829 C362.226493,89.2286773 362.396215,88.6196853 362.396215,88.6196853 C362.157298,87.8349221 357.886172,81.969781 354.349421,74.6618779 C354.294588,74.5488354 353.755393,73.4857132 352.890462,73.1491994 C348.254433,71.3450935 338.655333,67.7571378 332.842998,61.8906899 C330.571331,59.3710838 329.342803,57.648656 329.077775,56.6567571 C329.077775,56.6567571 326.599177,62.2657557 329.522317,67.7231598 L326.539774,64.9944577 C323.364009,63.9450575 316.711549,61.6293199 307.912755,62.693749 C308.461741,60.6093238 308.728727,57.9211341 308.673894,56.4202173 L308.307033,56.1379378 C307.924505,56.6639448 304.669101,62.232431 298.846974,57.7257601 C295.391168,55.0512923 289.940472,55.6955692 288.164263,62.4559023 C285.826012,71.3562017 279.396149,74.3038011 275.416162,75.3179164 C274.872398,75.4570959 274.650454,75.6113041 274.429162,76.0020522 L266.821035,92.8303548 C266.131701,92.9407836 264.884895,93.1760166 263.816951,93.5687249 C262.876297,93.9156935 262.168686,97.2612285 262.826686,99.507703 C262.826686,99.507703 266.577549,97.252734 267.004465,96.9704545 C268.325688,96.0942118 268.114188,94.9115129 268.114188,94.9115129 L268.937341,94.9115129 L278.180024,80.683841 C286.014665,79.0790296 291.868778,76.646329 296.711085,73.3785515 C296.297224,74.2123216 295.716251,74.9898971 294.207029,76.1647549 C293.075764,77.0455716 293.318598,77.6454156 293.834945,78.336739 C294.006626,78.567398 299.586572,84.9520118 302.512323,90.0519925 C301.975086,90.4107227 301.339934,90.9301955 300.783767,91.6437354 C300.167544,92.4350328 300.933253,95.5806199 302.555406,97.2671093 C302.555406,97.2671093 304.829685,93.5262523 305.068601,93.072122 C305.589518,92.08153 305.625421,91.8083984 305.348643,91.2007133 C305.750101,90.5681981 306.226629,90.0663679 306.226629,90.0663679 L300.01153,78.3968541 C302.375239,77.1207154 306.334338,72.8113788 309.101464,69.5971821 C311.693645,69.672326 313.888284,70.5649043 315.329618,70.9314756 C319.835744,72.0769293 327.39883,77.4670306 337.623291,75.7857685 C342.280862,75.9883302 349.0691,77.5683114 352.541879,78.4465144 L352.930282,80.4041751 C352.940073,80.3878395 356.455283,83.8777814 358.638825,88.579173 C358.638172,88.579173 359.159089,88.996058 359.73745,89.443654 C359.244603,89.8147993 358.138144,90.808005 357.959936,92.3644629 C357.844394,93.3615892 360.296228,95.7165322 362.536562,96.3869461 C362.536562,96.3869461 362.682132,92.0103067 362.666465,91.4980216 C362.635132,90.4381666 362.541132,90.1532734 362.075048,89.7925829 Z M453.664366,46.3496341 C454.216616,47.3983809 454.73688,48.3687167 454.896811,48.6072168 C455.278033,49.1815772 463.416869,49.8369623 463.416869,49.8369623 L456.439325,45.8321216 L454.445741,40.1682353 L454.4477,40.1499394 L454.439866,40.1525531 L454.436602,40.1440586 C454.429422,40.1479791 454.424852,40.1545134 454.418325,40.1584339 C447.533475,42.0278823 436.589653,50.504109 433.609721,54.1280031 C442.695085,57.6532299 440.52264,69.3292779 448.439531,71.0562797 C452.066366,71.8475772 455.843992,71.0994058 458.389173,70.636781 L457.816034,71.731921 C457.833006,71.7253867 458.336951,76.3052413 457.210909,81.0543328 L457.168478,82.4409003 C457.168478,82.4409003 455.741506,81.79597 454.484908,82.4121496 C453.58538,82.8545182 451.989338,84.941557 451.943643,87.2821247 C451.943643,87.2821247 456.195839,86.2490601 456.68477,86.0974655 C457.835617,85.7393887 458.000117,85.5740723 458.259923,84.8206735 C458.365673,84.7010967 459.938868,83.5785129 459.938868,83.5785129 C460.234576,82.8486374 460.668021,75.4845397 462.427257,67.8930502 C462.493841,67.6022762 462.311063,67.1612144 462.019924,67.1030596 L445.842128,63.5190245 C445.842128,63.5190245 448.316809,48.8306881 453.664366,46.3496341 Z M147.807862,37.2095278 C147.284334,37.1912319 146.542125,37.468284 146.159597,37.8250539 C145.77707,38.1824773 145.035514,38.4608363 144.511986,38.4431938 L141.201096,38.3268842 L152.761794,26.7880554 C153.453086,26.0980388 153.455044,24.9774152 152.76571,24.2854383 C152.345321,23.8646328 151.766307,23.7025834 151.221238,23.7934095 L127.6788,47.2925261 C127.6788,47.2925261 126.541008,45.7563243 128.544384,43.6196252 C129.114259,43.0106333 131.25994,40.8523711 134.037511,38.0766225 L116.72845,37.4715511 L117.139047,25.6909551 C117.139047,25.6909551 113.055268,28.8979641 112.84181,35.0238217 C112.77131,37.0350633 112.519991,42.3813852 112.439046,46.5397807 C112.384213,49.3985142 111.397865,52.4094958 110.533587,53.5843536 C112.321546,53.1831508 114.176741,52.9622932 116.083505,52.9622932 L121.502215,52.9622932 C133.955261,53.3275577 137.742678,50.625646 142.199846,46.8305547 C144.893208,44.5363802 152.261113,37.3656963 152.261113,37.3656963 L147.807862,37.2095278 Z M249.185585,38.5823733 C236.968193,44.1580472 233.318511,52.2866519 231.220483,56.1712625 C237.946054,59.6108907 239.393263,65.8778881 239.393263,65.8778881 C239.393263,65.8778881 243.054695,49.8650596 246.250696,46.4966546 C247.716182,47.8067714 252.466447,50.8314749 252.466447,50.8314749 L248.335668,44.2841582 L249.180363,38.5928281 L249.185585,38.5823733 Z M37.2194412,10.3008405 C44.4469988,9.93100201 51.1157785,9.76568553 58.526114,9.71537182 C60.2109339,9.7042636 61.2442814,10.9967379 61.1365731,12.0598601 C61.671851,12.0546327 62.2077817,12.0487518 62.7456707,12.0448313 L62.827268,9.71341155 C72.6900903,9.76764581 84.8395937,10.1806103 90.9123871,10.6896282 C92.8987905,10.8555981 93.1723045,12.3663163 93.1514156,13.2040069 C93.1514156,13.2040069 94.2252353,13.2954864 94.7546382,13.3418795 L94.8381938,10.9640666 C102.176071,11.5018353 109.623615,12.2049204 116.794381,13.0746288 C116.817881,12.4009478 116.770881,11.7239997 116.794381,11.0490119 C112.326115,10.3727172 97.5798613,8.07200841 77.7928556,7.36957674 C57.270822,6.64558204 42.5735261,7.90799879 37.2194412,8.28371805 C37.1959412,8.95609219 37.2422884,9.6278129 37.2194412,10.3008405 Z M105.035891,23.5522957 C106.40085,23.5522957 107.383281,23.1184216 108.267795,22.1585406 C103.608266,21.6606309 97.6144585,21.0908444 91.3849984,20.6203786 L90.3842898,49.3129156 C95.9818608,48.9156333 102.911099,47.2075808 106.729197,45.294353 L106.72985,45.294353 C106.72985,45.294353 107.959684,39.7114914 108.259309,29.9382164 C107.647003,29.1815505 106.675017,28.0334831 104.509099,28.0334831 C102.426085,28.0334831 101.070918,28.7365682 101.070918,30.0760891 C101.070918,30.8562783 101.416237,30.9980715 101.416237,31.4515483 C101.416237,31.9043717 101.003682,32.2526471 101.003682,33.8933968 C101.003682,35.4870999 101.404487,37.1056332 102.030501,37.2506935 C103.161766,37.51141 104.484947,36.8357688 105.066572,38.4222842 C105.648197,40.006186 104.910558,41.5352 103.003793,43.1877114 C102.131029,43.9443773 99.5342785,46.3032409 93.1298739,46.3032409 L93.3896795,23.4000477 C93.3896795,23.4000477 103.670932,23.5522957 105.035891,23.5522957 Z M60.1469617,21.5841802 C61.2057675,21.4887801 61.921865,21.116328 62.9558653,19.6931687 C56.0227105,19.6127975 52.5231678,19.6912085 45.9940826,19.978062 L45.2042213,42.6336071 C49.4270419,45.389753 56.5508079,47.6270796 62.6960596,48.4118428 L62.6960596,47.0644808 C53.6407237,46.0379504 53.5532514,38.3713171 53.5532514,36.068648 C53.5532514,34.3788915 54.7328212,35.1577738 55.8647382,34.8970573 C56.4900995,34.7526505 57.1010997,33.1334638 57.1010997,31.5404141 C57.1010997,29.8983575 56.6891968,29.5507355 56.6891968,29.0979121 C56.6891968,28.6444353 57.0332108,28.5019887 57.0332108,27.7217994 C57.0332108,26.3835854 56.1950439,25.6798469 54.1120294,25.6798469 C49.032764,25.6798469 49.8872504,29.6056232 49.8872504,32.5061759 C49.8872504,34.0423777 48.5986667,35.0048724 47.9406665,35.4080355 L48.0163887,22.4270982 C48.0163887,22.4270982 59.0881558,21.6789268 60.1469617,21.5841802 Z M123.378952,28.9561189 L129.970704,29.1580272 L135.260817,34.7265135 C135.260817,34.7265135 138.326262,28.5882407 138.937915,27.3219035 C139.939929,25.2498934 139.772818,23.1491326 135.303247,22.6688654 C134.079941,22.5368735 132.622941,22.4728379 131.519746,22.4349393 L133.453274,19.0756823 L136.217136,20.8196731 L146.156334,21.380965 C146.698792,21.3992609 147.155737,20.973228 147.17532,20.4295785 L147.216445,19.2050604 C158.634837,14.7604648 182.008858,48.7039237 207.383643,41.8958905 L207.040934,41.661311 C180.067496,43.4765252 159.648601,13.9430304 146.908334,18.1406314 L146.908334,18.1445519 L145.01593,18.0798629 C143.433597,18.0798629 142.551041,18.8489439 142.551041,18.8489439 L139.740832,18.3333917 L138.46204,16.9853763 L138.461387,16.9840695 L140.743499,17.0650941 L144.504805,15.9483911 L145.153014,16.6201118 C146.596959,16.1581405 148.200181,16.3103885 148.200181,16.3103885 C149.199584,16.3456734 150.039057,15.5635239 150.073001,14.5624771 L150.099112,13.8214934 C170.560438,10.9915105 199.102501,39.6833941 213.959075,39.6833941 L214.512631,39.1162214 C202.500864,39.1162214 170.890091,8.51372359 149.114723,13.0295425 L146.977528,12.9550521 C146.471625,12.9374096 145.766625,14.2142017 143.810902,14.1782633 C141.85518,14.1436318 136.574206,12.7818945 136.574206,12.7818945 C136.574206,12.7818945 135.781081,11.1058598 135.642039,10.7752269 C135.642039,10.7752269 135.877039,9.93230886 136.268053,9.94603078 C136.319622,9.94864448 137.706776,9.99765134 137.807956,10.000265 C138.134998,10.0022253 138.267512,9.85781843 138.422873,9.4461608 C138.514262,9.21158129 138.75579,8.55488935 138.983609,7.58259323 C139.210776,6.60964368 139.223179,5.88891611 139.223179,5.88891611 C139.223179,5.88891611 142.280138,5.91635995 142.487069,5.91635995 C142.777555,5.9202805 142.904194,5.76672567 142.841527,5.55566945 C142.633291,4.86107887 141.94918,3.59996898 139.309998,3.49411416 L139.489512,0.566117567 C138.378484,0.222416115 133.524427,-0.231714131 132.814205,2.28462483 C134.043386,1.75143018 137.886289,1.15877387 137.836026,2.48849337 L137.79947,3.54181417 C133.838413,3.27391 129.090106,3.7136649 128.87469,4.87937477 C128.704315,5.78894211 131.731899,6.41949706 132.767205,6.6259793 C132.767205,6.6259793 132.191455,8.44772768 131.184218,8.6692387 L133.493094,10.77392 C133.499622,10.7987502 134.969025,13.7169454 136.174706,16.1091336 C137.014178,17.7740601 130.502065,13.2693494 129.977232,13.6653248 C129.500051,14.0234016 130.776232,15.7288404 131.082385,16.5175241 C131.474704,17.3728572 131.03669,17.4538819 130.834982,17.6009025 C130.640454,17.7466162 126.635661,19.6350139 124.9293,21.4365062 L122.460493,21.3496007 C123.396577,19.2200892 124.857494,15.9771418 125.473064,15.0558128 C126.410453,13.6496426 124.491938,14.1841441 123.302577,15.8556048 C122.832577,16.5175241 120.692771,19.4612029 119.511243,21.247013 L119.391784,24.675533 C119.312145,26.9599061 121.09684,28.8750942 123.378952,28.9561189 Z M84.7188298,22.7819078 L84.8108715,20.1557935 C82.1416624,20.0028921 79.2230921,19.8663263 76.8463276,19.7820345 C74.334438,19.6938222 70.9772009,19.6232523 68.2198668,19.6049564 L67.046172,53.1753097 C67.046172,53.1753097 68.9411864,52.8969507 69.1677004,49.8696335 C69.1696587,49.8467637 69.8818395,36.9573058 69.8818395,36.9573058 L82.8675515,36.9573058 L82.8688571,36.9710277 L84.2834269,35.2786574 L73.5504516,34.9035916 C74.2639379,29.8205999 75.7614106,23.397434 84.7188298,22.7819078 Z M77.224286,12.9191137 C77.2040499,12.9191137 77.1844665,12.9178068 77.1635777,12.9178068 C77.1740221,12.9178068 77.1844665,12.9191137 77.194911,12.9191137 L77.224286,12.9191137 Z M9.43590548,49.2606416 C9.43590548,49.2606416 26.9538549,40.2100545 35.5365796,30.5968686 L35.7069547,25.7099044 C33.3856762,29.2599615 26.7319104,37.4480278 9.56319718,48.2341112 L9.43590548,49.2606416 Z M9.15716929,56.6371543 L0,56.3176296 L0.17951394,51.1660284 C28.4885359,32.2271635 37.3865524,14.4971346 37.3865524,14.4971346 C40.3273171,13.5908344 59.8643088,12.647289 77.1825082,13.2523603 C94.5013604,13.8580851 113.41756,16.2751035 116.794381,17.2735367 C116.778714,17.7145984 116.802867,19.699703 116.794381,19.9244811 C111.762768,19.2024467 96.6157082,17.2676558 77.065661,16.5828666 C61.6633649,16.045098 47.5352914,16.5848269 40.9030673,16.9344092 L40.0009281,42.8048044 C38.3709415,42.539514 36.7187605,42.3911865 35.0548295,42.3911865 C24.1821597,42.3911865 14.6170042,48.0805564 9.15716929,56.6371543 Z M118.462228,55.8759144 C106.068586,54.5625306 94.9191383,63.5869807 93.6077074,75.9935576 C93.4464712,77.515384 93.3909851,79.7768873 93.7349991,82.2259235 C94.6090688,82.0298961 95.4426662,82.0259755 95.4426662,80.3349121 C95.4426662,78.6954692 95.5849718,77.1605744 95.8375969,75.7184658 C98.6628199,74.7736135 101.200168,73.6431886 103.414391,72.3598622 C101.096376,70.953692 98.6549866,69.3096752 99.0029172,68.7065641 C99.3971951,68.0224283 102.697641,69.7520438 105.264363,71.2026469 C106.573183,70.3290179 107.759934,69.4063821 108.82592,68.446501 C107.351295,65.8510977 105.419072,62.2363516 106.133211,61.8253474 C106.810142,61.4332925 108.777614,64.5292193 110.27117,67.0573199 C112.734755,64.4958946 114.388894,61.7449761 115.292991,59.0639741 C116.242783,59.0384905 117.185395,59.0724686 118.114298,59.1704824 C128.692565,60.2917593 136.388164,69.8173863 135.26865,80.4067888 C134.149136,90.9968448 124.608786,98.9202741 114.022033,97.8813287 C103.447682,96.8443435 101.073529,91.9155601 99.2588062,94.2378319 C104.610933,98.6641316 109.050476,100.379372 113.705435,100.873361 C126.099078,102.184784 137.248525,93.1609878 138.559304,80.7563711 C139.87204,68.3504476 130.856524,57.1879915 118.462228,55.8759144 Z M257.569865,67.4722446 C257.585532,67.1814706 257.403407,66.777654 256.687962,66.777654 L239.393263,66.777654 C238.399082,70.9020715 241.760236,73.8764612 244.090653,73.6588708 C247.352585,73.3537214 251.213766,71.9397101 253.991337,70.7772673 L253.755684,71.9789156 C253.77135,71.970421 255.017504,78.0590335 255.022726,82.8270743 C254.416295,82.7551976 253.335295,82.7264469 252.142669,83.3504676 C251.254239,83.8157061 250.06096,86.2307642 250.371683,88.5510757 C250.371683,88.5510757 254.416948,86.8828822 254.877156,86.658104 C255.960768,86.1288299 256.268879,85.8093052 256.240157,84.8448502 C256.821782,84.0692349 257.827713,83.0936717 257.827713,83.0936717 C257.989602,82.3363523 257.157963,75.1284232 257.569865,67.4722446 Z M306.075185,47.2918726 C295.470154,47.2918726 293.752695,52.0638341 293.752695,52.0638341 C297.12103,51.0503722 301.62585,50.2982802 306.354574,50.2982802 C311.348325,50.2982802 315.589424,51.1196352 319.393161,51.1196352 C324.283121,51.1196352 325.946399,49.6317869 326.667066,48.118455 C325.484885,48.3935469 324.189121,48.8979908 321.156314,48.8979908 C315.50391,48.8979908 311.726936,47.2918726 306.075185,47.2918726 Z M321.59955,43.5941416 C321.59955,43.5941416 325.129774,47.2167288 329.552997,46.3306847 C332.909581,45.658964 337.941194,41.1980328 344.372363,36.2986536 C344.372363,36.2986536 343.147098,34.6559436 340.084264,34.6559436 C335.720443,34.6559436 328.499414,38.7039103 322.598301,38.1929321 L322.511481,38.2733034 C326.033871,41.2927794 330.471456,42.4695975 331.730012,42.2003865 C329.281442,45.3348653 321.59955,43.5941416 321.59955,43.5941416 Z M348.495961,35.0329697 C350.626628,35.0329697 351.985059,34.3298846 354.082435,34.3298846 C357.209894,34.3298846 359.147339,35.5354534 359.147339,35.5354534 C359.145381,35.1120341 358.949547,33.1641747 358.42145,31.8311881 C358.012811,30.8000837 357.239269,30.2048137 356.67788,31.5508689 C356.457241,32.0834101 356.249005,32.6061499 356.077977,32.9857898 C355.727435,33.7587913 354.894491,33.7764338 355.032879,33.2719898 C355.164741,32.7917226 356.436352,30.3394193 350.402725,30.3394193 C345.087154,30.3394193 342.33439,31.8769278 339.836861,30.7249399 C343.12164,34.3860791 346.45603,35.0329697 348.495961,35.0329697 Z M298.719683,38.5830267 C310.667478,36.6305934 318.490369,40.0114134 321.31755,41.2450794 L321.548634,40.9052985 C315.753924,37.6976361 308.696088,34.304401 295.222751,37.3931401 C280.271525,40.8196999 279.452941,44.6742528 259.81738,46.4300053 L260.307616,48.2582879 C280.800275,46.7070574 284.803762,40.8582519 298.719683,38.5830267 Z M263.271228,64.0437246 C273.969606,66.1974128 278.291649,57.3212901 286.162193,54.6121908 C282.124761,52.5499821 276.178607,55.6674719 276.178607,55.6674719 C284.938234,50.2172555 288.458666,51.5737655 292.579653,52.4173369 C291.747361,51.3901531 290.191791,50.1100939 287.648568,49.5971554 C276.599649,47.3722439 272.943439,56.539794 260.648366,54.2907058 C260.648366,54.2907058 262.427839,58.4327657 266.738132,58.6830274 C266.738132,58.6830274 260.551102,60.7909759 255.701615,59.3312249 C255.701615,59.3312249 257.951741,62.9727613 263.271228,64.0437246 Z M256.532601,49.6017294 C256.994115,50.825594 255.879823,51.5110367 255.067115,50.6321803 C254.253753,49.7533239 252.468406,51.4855531 252.468406,51.4855531 C252.499739,52.0370436 252.280406,53.1393713 253.397961,53.7098112 C254.223073,54.1293099 254.769448,53.8502975 254.769448,53.8502975 L256.482337,54.5553429 C256.482337,54.5553429 257.36424,53.2119015 257.992866,52.8780014 C259.486422,52.0853971 259.427019,50.3531679 259.427019,50.3531679 C258.667185,49.2567211 256.954949,42.3741975 256.543046,39.6043297 C256.452962,39.0123268 256.312615,38.4346993 256.142893,37.8845156 C256.142893,37.8845156 255.981004,37.8675265 255.980351,37.8721005 C254.318378,40.9621465 253.61142,42.2382851 253.61142,42.2382851 C253.971101,42.8838688 256.41706,49.2978868 256.532601,49.6017294 Z M427.837206,46.3052012 C431.871374,45.9222942 440.343126,39.6644448 443.848544,38.5098431 L443.785224,38.3706636 C441.919585,38.7130583 439.736043,37.5832867 436.814861,37.754484 C429.470456,38.1824773 428.048706,43.9005979 419.947731,41.6142644 L419.907259,41.6743795 C420.734329,43.2576278 424.52501,46.6201519 427.837206,46.3052012 Z M363.621479,48.7457429 C364.346063,49.8559116 363.394312,50.7792009 362.396215,50.0878774 C361.398117,49.396554 360.009659,51.5051559 360.009659,51.5051559 C360.163061,52.0442313 360.187867,53.1844576 361.420312,53.5020221 C362.328979,53.7366016 362.808771,53.3412796 362.808771,53.3412796 L364.658743,53.6621112 C364.658743,53.6621112 365.23841,52.1370176 365.787396,51.6678586 C367.093605,50.5544227 366.65298,48.8529045 366.65298,48.8529045 C365.659452,47.9328824 362.453007,41.4940343 361.435978,38.8430898 C361.217298,38.2759171 360.95227,37.7335745 360.663089,37.2271702 C360.665048,37.2304373 360.499242,37.2461195 360.499242,37.2461195 C359.53052,40.6772532 359.112742,42.0951851 359.112742,42.0951851 C359.610811,42.6551702 363.441312,48.4693442 363.621479,48.7457429 Z M351.973309,46.7501835 C351.973309,46.7501835 352.184156,47.4317056 352.212879,47.5192645 C352.42242,48.1543934 359.864742,50.8569584 359.864742,50.8569584 L354.366393,45.3217968 L353.995615,40.092438 L354.043921,39.4462009 C347.113377,41.4339192 341.992334,50.0819966 334.783054,54.1665551 C342.74107,58.1452588 345.162224,64.8134591 346.66753,67.2703364 C346.66753,67.2703364 348.221794,65.3427332 348.383683,60.4858265 C348.58735,54.4148566 346.095044,51.0242352 351.973309,46.7501835 Z M391.201348,37.4846196 C406.692422,39.6147845 419.178106,47.210848 423.203788,49.9009979 C421.146232,49.9630733 418.598439,49.7402554 415.480119,49.4207307 C411.494257,49.0149539 409.370117,48.553636 404.875741,48.9038717 C399.004656,49.3638827 395.886336,51.4077956 394.383641,52.4290985 L394.76878,52.7950164 C398.147558,51.9135464 401.283504,51.3542147 407.632422,51.3542147 C413.982646,51.3542147 415.606105,52.5356068 419.045592,52.5356068 C426.403705,52.5356068 425.679122,49.6945157 425.679122,49.6945157 C425.679122,49.6945157 409.72327,38.0629006 391.494445,35.556363 C372.56519,32.9524651 363.329687,36.8579852 363.329687,36.9925907 L363.872799,38.4294719 C363.872799,38.2935595 372.270134,34.8820286 391.201348,37.4846196 Z M392.410946,53.1909919 C392.408987,53.0596535 392.407682,52.9243945 392.405071,52.7924027 C390.641265,52.3996944 388.60982,52.0429245 386.242847,52.0429245 C371.864759,52.0429245 370.956092,62.3010406 358.770686,62.3010406 C357.580672,62.3010406 355.788796,62.0148406 355.036796,61.9004912 C354.562227,61.8279611 354.434935,62.0834502 354.697352,62.3304448 C356.479435,64.0084397 361.336756,67.5552296 369.017342,67.6741529 C378.527011,67.8211735 383.711374,60.4355128 383.82561,59.9480579 C381.680582,61.6927021 372.950329,65.2780441 371.952232,64.5873741 C379.388025,56.1595008 389.248889,53.7640454 392.410946,53.1909919 Z M444.166447,36.6645715 C446.814114,36.8736674 448.030892,35.8954905 451.977588,34.7709463 C456.287228,33.5425077 460.169298,35.5916479 460.169298,35.5916479 C460.170604,35.1126875 459.374868,32.5891609 458.693367,31.3731373 C458.366326,30.7889755 457.704409,30.7909358 457.453089,31.4143031 C457.275534,31.8553648 456.808145,33.2648021 456.780728,33.3373323 C456.631895,33.7339612 456.298978,33.6673118 456.154714,33.3732707 C455.660561,32.3696102 455.056741,30.1643014 452.278518,30.3413795 C448.109878,30.6073234 438.961848,32.4316855 435.157458,30.1865178 L435.035388,30.2976001 C437.105347,33.2014199 440.807904,36.4437139 444.166447,36.6645715 Z M157.252253,63.5458149 C166.628103,65.4636167 170.781077,59.0665878 170.781077,59.0665878 C168.096854,60.503469 161.825616,61.5411076 161.168921,60.8105786 C171.512841,53.0524658 181.431802,54.0580866 184.696345,54.4547155 L185.99472,52.9479178 C183.322247,51.482286 179.878843,49.7193458 174.562619,49.7193458 C164.956339,49.7193458 161.426116,55.3636294 154.579128,55.3636294 C151.112224,55.3636294 148.969807,53.5444947 147.697542,52.3957739 C146.9945,51.7612984 146.706625,51.7809011 146.831306,52.4016547 C147.331334,54.8781347 149.753793,62.0122269 157.252253,63.5458149 Z M211.240908,48.6340072 C202.666669,46.6658917 191.395805,47.0873507 186.813956,53.1811905 L187.192567,53.3550015 C189.611763,51.6861545 198.467348,48.8515977 210.644921,51.0497188 C219.59516,52.6643315 224.859814,48.0890509 224.859814,48.0890509 C224.805634,48.1106139 218.397965,50.2754103 211.240908,48.6340072 Z M106.47135,54.6729594 L106.526183,53.1027795 C100.207945,55.4982349 92.2277347,56.5789995 82.704357,56.2464063 C73.3631043,55.9196939 64.7914769,54.9996718 58.1416278,52.8936836 C60.516434,55.6053966 62.4140595,58.7320343 63.7222266,62.1298433 C66.3574912,62.5088297 69.1448531,62.8603723 72.0934512,62.8603723 C96.9988889,62.8603723 106.23178,54.8480772 106.47135,54.6729594 Z M238.490471,36.3234837 C246.742237,34.2357914 250.733975,31.8880361 255.571059,35.3897396 C255.571059,35.3897396 255.62524,32.3264841 254.700253,30.9124728 C254.407156,30.4648768 253.563767,30.3413795 252.536947,32.3977074 C252.175308,33.1223555 251.754919,32.8635993 251.719017,32.5512622 C251.60478,31.580273 251.951405,29.65463 249.364446,29.5847136 C244.099792,29.4403067 236.374818,34.2998271 229.689719,30.0551795 C229.689719,30.0551795 232.847858,36.1699289 238.490471,36.3234837 Z M226.924551,45.8308148 C229.277816,43.3177429 232.645497,40.0597668 236.618957,38.0276156 C236.293873,37.0781894 233.930817,36.1594741 231.193719,36.1594741 C222.931508,36.1594741 221.212091,44.5082829 210.72913,41.7449494 C214.307659,46.4182437 218.980243,48.0897043 226.924551,45.8308148 Z M469.532093,49.0247553 C469.112357,49.6415883 468.953732,51.3163161 468.953732,51.3163161 L467.024773,51.5031956 C467.024773,51.5031956 466.655953,52.0278957 465.686578,52.0435779 C464.373189,52.0631806 464.038313,50.9360228 463.738688,50.4413803 C463.738688,50.4413803 464.544869,47.9642468 465.726397,48.3804784 C466.907925,48.7947497 467.604439,47.6159714 466.579578,46.7096711 C466.325647,46.4835861 460.919993,42.2931728 460.271132,41.8736741 C460.271132,41.8736741 461.662202,39.8271476 460.339021,36.125496 C460.337062,36.1222289 460.497646,36.0627672 460.49634,36.0581932 C460.921299,36.4835728 461.333854,36.9494647 461.705938,37.4545621 C463.440369,39.8153859 468.385162,45.3440133 469.626093,45.9876367 C469.626093,45.9876367 470.526926,47.5610837 469.532093,49.0247553 Z" id="Fill-1" fill="#787070" mask="url(#mask-2)"></path>
            </g>
        </g>
    </g>
</svg>